<?xml version="1.0" standalone="no"?>
<!DOCTYPE svg PUBLIC "-//W3C//DTD SVG 20010904//EN"
 "http://www.w3.org/TR/2001/REC-SVG-20010904/DTD/svg10.dtd">
<svg version="1.0" xmlns="http://www.w3.org/2000/svg"
 width="1344.000000pt" height="1344.000000pt" viewBox="0 0 1344.000000 1344.000000"
 preserveAspectRatio="xMidYMid meet">
<metadata>
Created by potrace 1.14, written by Peter Selinger 2001-2017
</metadata>
<g transform="translate(0.000000,1344.000000) scale(0.100000,-0.100000)"
fill="#000000" stroke="none">
<path d="M19 9568 c-4 -178 5 -501 16 -588 2 -14 6 -47 10 -75 6 -47 9 -66 20
-125 3 -14 7 -38 9 -55 5 -33 35 -161 43 -185 3 -8 8 -24 10 -34 5 -27 82
-255 98 -291 7 -16 23 -52 35 -80 62 -143 216 -420 272 -490 4 -5 44 -57 88
-114 143 -186 265 -312 469 -482 73 -62 205 -154 321 -224 104 -63 369 -195
392 -195 8 0 18 -4 24 -9 5 -5 38 -18 74 -30 36 -12 74 -25 85 -30 32 -13 85
-29 170 -50 70 -17 129 -32 145 -36 8 -2 102 -17 125 -20 11 -2 40 -6 65 -10
25 -4 53 -7 62 -7 24 1 34 -22 41 -88 3 -30 8 -66 11 -80 3 -14 8 -41 10 -60
7 -50 15 -87 33 -155 8 -33 17 -71 20 -84 2 -14 6 -28 9 -33 3 -4 7 -16 9 -25
20 -108 187 -498 265 -623 5 -8 33 -53 62 -100 60 -97 76 -120 136 -195 23
-29 42 -57 42 -60 0 -4 6 -12 13 -19 6 -7 39 -43 72 -81 77 -87 195 -206 270
-270 32 -27 69 -60 82 -72 13 -13 26 -23 28 -23 2 0 41 -28 87 -63 113 -85
247 -167 406 -249 73 -37 135 -67 137 -67 3 0 26 -9 51 -21 26 -11 52 -20 58
-20 7 0 16 -4 22 -9 14 -13 311 -105 379 -117 11 -2 43 -8 70 -13 55 -10 87
-16 155 -26 25 -4 53 -9 63 -11 85 -16 634 -26 643 -12 2 4 4 1157 4 2562 l0
2556 335 0 c184 0 335 -3 336 -7 5 -49 2 -263 -4 -263 -5 0 -5 -5 -1 -12 10
-16 11 -308 1 -308 -5 0 -5 -5 -1 -12 10 -16 11 -308 1 -308 -5 0 -5 -5 -1
-12 10 -16 11 -308 1 -308 -5 0 -5 -5 -1 -12 10 -16 11 -308 1 -308 -5 0 -5
-5 -1 -12 10 -16 11 -308 1 -308 -5 0 -5 -5 -1 -11 4 -7 6 -46 5 -88 -1 -42
-2 -80 -2 -86 1 -10 1 -207 1 -235 0 -8 0 -62 0 -120 0 -58 0 -112 0 -120 0
-8 0 -62 0 -120 0 -58 0 -112 0 -120 0 -8 0 -62 0 -120 0 -58 0 -112 0 -120 0
-8 0 -62 0 -120 0 -58 0 -112 0 -120 0 -8 0 -62 0 -120 0 -58 0 -112 0 -120 0
-8 0 -62 0 -120 0 -58 0 -112 0 -120 -1 -15 0 -197 0 -255 1 -16 2 -76 3 -133
1 -56 -1 -102 -5 -102 -4 0 -5 -7 -1 -16 9 -23 9 -514 0 -514 -4 0 -4 -8 0
-17 7 -16 10 -269 3 -298 -1 -5 -1 -14 0 -20 1 -5 3 -17 4 -25 1 -12 113 -14
861 -13 875 1 1013 4 1024 21 3 6 6 1156 6 2556 l0 2546 2243 0 2243 0 -6 -37
c-5 -32 -19 -101 -51 -242 -10 -46 -73 -227 -102 -296 l-30 -70 -1799 -1
c-989 -1 -1803 -2 -1808 -3 -7 -1 -10 -723 -10 -2151 0 -1735 2 -2150 13
-2150 23 0 166 63 312 138 80 41 155 79 167 86 13 6 23 14 23 19 0 4 7 7 15 7
8 0 15 5 15 10 0 6 4 10 10 10 16 0 169 108 280 199 110 91 297 273 365 356
22 27 51 62 65 79 37 45 121 162 162 226 19 30 43 69 54 85 45 72 124 226 173
340 12 28 26 59 31 70 14 30 89 243 95 268 2 12 14 58 25 101 21 79 31 124 33
159 1 9 4 17 7 17 3 0 6 13 7 28 1 15 5 41 8 57 3 17 8 48 11 70 7 64 13 82
26 82 20 1 121 13 144 17 33 7 97 18 119 21 11 2 21 4 23 5 1 2 5 3 10 4 40
10 71 17 88 20 12 3 68 19 125 36 57 17 109 33 114 34 6 2 24 8 40 15 17 6 60
23 96 37 126 47 487 240 497 266 2 4 9 8 16 8 7 0 24 10 37 21 13 12 35 29 49
38 14 9 32 21 40 28 8 7 42 34 75 60 146 116 373 345 445 447 8 12 23 30 33
41 10 11 26 32 35 48 9 15 20 27 24 27 4 0 8 6 8 14 0 8 3 16 8 18 9 4 72 96
72 105 0 4 6 14 14 22 34 39 197 359 227 446 8 22 18 43 22 46 5 3 8 9 7 13
-1 4 3 19 8 34 6 15 23 68 37 117 15 50 31 101 36 115 11 31 65 308 73 375 16
128 20 217 20 440 l1 240 -2868 2 -2867 2 0 -27 c0 -15 0 -35 0 -44 0 -10 0
-25 0 -33 1 -8 1 -35 1 -60 0 -25 0 -52 -1 -60 0 -8 0 -21 0 -27 -1 -7 1 -32
2 -56 2 -23 0 -42 -4 -42 -4 0 -3 -12 1 -27 4 -16 4 -41 1 -58 -3 -16 -3 -44
1 -61 3 -18 3 -38 -2 -45 -4 -7 -4 -20 1 -30 5 -9 7 -19 4 -22 -3 -3 -5 -26
-4 -51 0 -25 1 -53 0 -61 0 -8 0 -21 0 -27 -1 -7 1 -32 2 -56 2 -23 0 -42 -4
-42 -4 0 -3 -13 2 -29 4 -16 6 -32 3 -34 -2 -3 -4 -26 -3 -51 0 -25 1 -53 0
-61 0 -23 0 -41 0 -90 0 -25 0 -64 0 -87 0 -24 1 -71 3 -106 1 -34 -1 -62 -5
-62 -4 0 -3 -12 1 -27 5 -16 5 -37 1 -48 -4 -11 -5 -24 -2 -29 8 -14 8 -76 0
-76 -4 0 -3 -12 1 -27 4 -16 4 -40 0 -55 -4 -16 -4 -28 -1 -28 6 0 7 -68 2
-95 -2 -6 -2 -12 0 -15 5 -15 4 -80 -2 -80 -4 0 -3 -12 1 -27 5 -16 5 -37 1
-48 -4 -11 -5 -24 -2 -29 8 -14 8 -76 0 -76 -4 0 -3 -12 1 -27 4 -16 4 -40 0
-55 -4 -16 -4 -28 -1 -28 6 0 7 -68 2 -95 -2 -6 -2 -12 0 -15 5 -15 4 -80 -2
-80 -4 0 -3 -12 1 -27 5 -16 5 -37 1 -48 -4 -11 -5 -24 -2 -29 8 -14 8 -76 0
-76 -4 0 -3 -12 1 -27 4 -16 4 -40 0 -55 -4 -16 -4 -28 -1 -28 6 0 7 -68 2
-95 -2 -6 -2 -12 0 -15 5 -15 4 -80 -2 -80 -4 0 -3 -12 1 -27 5 -16 5 -37 1
-48 -4 -11 -5 -24 -2 -29 8 -14 8 -76 0 -76 -4 0 -3 -12 1 -27 4 -16 4 -40 0
-55 -4 -16 -4 -28 -1 -28 6 0 7 -68 2 -95 -2 -6 -2 -12 0 -15 5 -15 4 -80 -2
-80 -4 0 -3 -12 1 -27 5 -16 5 -37 1 -48 -4 -11 -5 -24 -2 -29 8 -14 8 -76 0
-76 -4 0 -3 -12 1 -27 4 -16 4 -40 0 -55 -4 -16 -4 -28 -1 -28 6 0 7 -68 2
-95 -2 -6 -2 -12 0 -15 5 -15 4 -80 -2 -80 -4 0 -3 -12 1 -28 5 -15 5 -37 1
-48 -5 -11 -5 -26 0 -33 4 -7 4 -28 0 -47 -4 -18 -5 -35 -3 -38 8 -7 9 -86 1
-86 -4 0 -3 -12 1 -27 4 -16 4 -41 1 -58 -3 -16 -3 -44 1 -61 3 -18 3 -38 -2
-45 -4 -7 -4 -20 1 -30 5 -9 7 -19 4 -22 -3 -3 -5 -26 -4 -51 0 -25 1 -53 0
-61 0 -8 0 -21 0 -27 -1 -7 1 -32 2 -56 2 -23 0 -42 -4 -42 -4 0 -3 -12 1 -27
4 -16 4 -41 1 -58 -3 -16 -3 -44 1 -61 3 -18 3 -38 -2 -45 -4 -7 -4 -20 1 -30
5 -9 7 -19 4 -22 -3 -3 -5 -26 -4 -51 0 -25 1 -53 0 -61 0 -8 0 -21 0 -27 -1
-7 1 -32 2 -56 2 -23 -1 -42 -5 -42 -5 0 -5 -4 -2 -10 8 -13 11 -108 3 -115
-11 -11 -58 -13 -58 -2 0 6 -5 6 -12 0 -7 -5 -65 -7 -128 -6 -143 3 -117 3
-238 0 -56 -1 -102 2 -102 7 0 5 -6 4 -12 -1 -14 -9 -95 -10 -104 0 -4 3 -7
1155 -8 2559 l-1 2553 -944 3 c-560 1 -947 -2 -950 -7 -3 -5 -6 -1151 -5
-2548 0 -1396 -1 -2541 -2 -2544 -2 -4 -21 -3 -41 1 -21 5 -54 11 -75 14 -55
8 -216 51 -283 76 -33 12 -64 23 -70 24 -15 4 -63 24 -125 52 l-55 25 0 1807
c1 994 -1 1814 -3 1823 -3 14 -168 16 -1800 17 -988 0 -1802 1 -1809 1 -6 1
-16 13 -22 29 -6 15 -19 50 -30 77 -10 28 -24 64 -31 80 -7 17 -14 35 -16 40
-1 6 -14 50 -28 99 -27 93 -66 271 -66 303 0 17 60 18 1900 17 1579 -1 1900 2
1901 13 0 7 1 141 1 298 0 157 -1 290 -1 295 -1 7 -748 10 -2221 10 l-2220 0
-1 -32z m3831 -1943 c1 -153 0 -2376 0 -2440 l0 -60 -53 55 c-28 30 -70 78
-92 105 -22 28 -42 52 -45 55 -17 16 -90 121 -90 128 0 4 -8 17 -17 28 -10 11
-24 31 -31 43 -8 13 -23 40 -35 60 -115 201 -205 437 -253 666 -4 19 -17 98
-29 175 -11 69 -18 228 -19 408 0 100 -3 183 -6 183 -3 1 -102 2 -220 4 -118
1 -242 5 -275 9 -33 3 -82 9 -110 12 -84 9 -292 58 -420 98 -5 2 -14 4 -20 6
-5 1 -19 7 -30 13 -11 6 -22 12 -25 12 -24 2 -269 120 -335 161 -22 13 -50 30
-62 36 -13 6 -23 15 -23 20 0 4 -5 8 -12 8 -15 0 -189 130 -252 189 -105 98
-116 108 -112 112 2 2 581 4 1285 4 l1281 0 0 -90z m8300 86 c16 -2 -18 -35
-145 -142 -83 -71 -72 -62 -160 -126 -39 -27 -86 -58 -105 -69 -19 -10 -37
-22 -40 -25 -5 -7 -230 -123 -240 -124 -3 -1 -23 -9 -45 -19 -118 -51 -366
-123 -492 -142 -21 -3 -49 -7 -63 -9 -71 -12 -197 -18 -387 -19 -117 0 -214
-3 -214 -6 -1 -3 -3 -97 -4 -210 -2 -190 -9 -319 -19 -380 -3 -14 -10 -59 -16
-100 -17 -105 -16 -99 -45 -207 -15 -54 -38 -127 -52 -163 -14 -36 -26 -69
-27 -75 -22 -90 -241 -477 -308 -546 -8 -8 -21 -24 -29 -36 -27 -38 -161 -184
-166 -179 -3 3 -6 2192 -3 2536 l0 45 1273 -1 c699 -1 1279 -2 1287 -3z"/>
</g>
</svg>
