<svg width="61" height="68" viewBox="0 0 61 68" fill="none" xmlns="http://www.w3.org/2000/svg">
<g clip-path="url(#clip0)">
<path d="M30.4998 41.2117C31.0541 41.2117 31.5138 40.7601 31.5138 40.2156V39.3523C32.6494 38.9406 33.4606 37.8781 33.4606 36.6164C33.4606 35.0094 32.1357 33.7078 30.4998 33.7078C28.864 33.7078 27.5391 35.0094 27.5391 36.6164C27.5391 37.8781 28.3502 38.9406 29.4859 39.3523V40.2156C29.4859 40.7601 29.9455 41.2117 30.4998 41.2117ZM30.4998 35.7C31.0136 35.7 31.4327 36.1117 31.4327 36.6164C31.4327 37.1211 31.0136 37.5328 30.4998 37.5328C29.9861 37.5328 29.567 37.1211 29.567 36.6164C29.567 36.1117 29.9861 35.7 30.4998 35.7Z" fill="black"/>
<path d="M58.8639 22.5117C60.8378 21.3961 61.6084 18.9391 60.4727 17C59.3506 15.0875 56.8225 14.4766 54.8081 15.6187C53.1046 16.5883 52.334 18.5008 52.8072 20.2008L48.0618 22.8969C44.5062 17.4914 38.4495 13.8258 31.5004 13.507V8.11484C33.2445 7.65 34.5423 6.04297 34.5423 4.13047C34.5423 1.85938 32.7307 0.0132828 30.4865 0.0132828C28.2422 0.0132828 26.4306 1.85938 26.4306 4.13047C26.4306 6.04297 27.7285 7.66328 29.4725 8.11484V13.4937C22.537 13.8258 16.4668 17.4914 12.9111 22.8836L8.19282 20.1875C8.65249 18.5008 7.90891 16.575 6.19194 15.6055C4.19105 14.4766 1.64938 15.1008 0.527265 17C-0.608373 18.9391 0.162239 21.3828 2.13609 22.5117C3.83954 23.4812 5.90803 23.1625 7.17886 21.9273L11.9242 24.6234C10.4371 27.4258 9.59885 30.6133 9.59885 34C9.59885 37.3867 10.4371 40.5742 11.9107 43.3898L7.16534 46.0859C4.94814 43.9078 1.05453 44.9437 0.162239 47.9453C-0.594853 50.482 1.3114 52.9656 4.04234 52.9656C5.85395 52.9656 7.61148 51.7969 8.15226 49.9508C8.36858 49.2336 8.36858 48.5031 8.1793 47.8125L12.9246 45.1164C16.4803 50.5219 22.537 54.1875 29.486 54.5062V59.8852C27.742 60.35 26.4442 61.957 26.4442 63.8695C26.4442 66.1406 28.2558 67.9867 30.5 67.9867C32.7442 67.9867 34.5559 66.1406 34.5559 63.8695C34.5559 61.957 33.258 60.3367 31.514 59.8852V54.5062C38.4495 54.1742 44.5197 50.5086 48.0754 45.1164L52.8207 47.8125C52.6314 48.5031 52.6314 49.2336 52.8477 49.9508C53.8752 53.4039 58.6882 54.0547 60.4727 51.0133C61.6084 49.0742 60.8378 46.6305 58.8639 45.5016C57.174 44.5453 55.1055 44.8375 53.8211 46.0859L49.0758 43.3898C50.5494 40.5742 51.3876 37.3867 51.3876 34C51.3876 30.6133 50.5494 27.4258 49.0758 24.6102L53.8211 21.9141C55.092 23.1625 57.1605 23.4812 58.8639 22.5117ZM55.8355 17.332C56.9036 16.7344 58.1744 17.0664 58.7287 17.9961C59.283 18.9258 58.918 20.1875 57.8635 20.7852C56.809 21.3828 55.5246 21.0641 54.9703 20.1211C54.416 19.1914 54.781 17.9297 55.8355 17.332ZM6.04322 20.1211C5.48892 21.0508 4.20457 21.3828 3.15005 20.7852C2.09553 20.1875 1.74402 18.9391 2.2848 17.9961C2.8391 17.0531 4.13697 16.7477 5.17797 17.332C6.23249 17.9297 6.584 19.1914 6.04322 20.1211ZM6.20546 49.3797C5.88099 50.4953 4.66423 51.1726 3.52859 50.907C2.42 50.6414 1.7981 49.5789 2.10905 48.5031C2.39296 47.5602 3.31228 46.9226 4.27217 46.9226C5.65116 46.9094 6.584 48.118 6.20546 49.3797ZM54.9703 47.8789C55.5246 46.9359 56.8225 46.6305 57.8635 47.2148C58.918 47.8125 59.2695 49.0609 58.7287 50.0039C57.8364 51.5312 55.3353 51.1726 54.8081 49.3797C54.6458 48.8617 54.6999 48.3305 54.9703 47.8789ZM28.4721 4.11719C28.4721 2.94844 29.3779 1.99219 30.5 1.99219C31.6221 1.99219 32.5279 2.94844 32.5279 4.11719C32.5279 5.28594 31.6221 6.24219 30.5 6.24219C29.3914 6.24219 28.4721 5.29922 28.4721 4.11719ZM32.5279 63.8828C32.5279 65.0516 31.6221 66.0078 30.5 66.0078C29.3779 66.0078 28.4721 65.0516 28.4721 63.8828C28.4721 62.7141 29.3779 61.7578 30.5 61.7578C31.6221 61.7578 32.5279 62.7008 32.5279 63.8828ZM49.3732 34C49.3732 44.2266 40.91 52.5406 30.5 52.5406C20.09 52.5406 11.6268 44.2266 11.6268 34C11.6268 23.7734 20.09 15.4594 30.5 15.4594C40.91 15.4594 49.3732 23.7734 49.3732 34Z" fill="black"/>
<path d="M32.8662 44.2266H36.3272C37.7873 44.2266 38.9906 43.0578 38.9906 41.6102V33.1766C38.9906 31.7687 37.8549 30.6266 36.4354 30.5734V28.7141C36.4354 25.5 33.772 22.8969 30.5138 22.8969C27.2556 22.8969 24.5923 25.5133 24.5923 28.7141V30.5734C23.1727 30.6266 22.0371 31.7687 22.0371 33.1766V41.6102C22.0371 43.0445 23.2268 44.2266 24.7005 44.2266H28.1614C28.7157 44.2266 29.1754 43.775 29.1754 43.2305C29.1754 42.6859 28.7157 42.2344 28.1614 42.2344H24.7005C24.3625 42.2344 24.065 41.9555 24.065 41.6102V33.1766C24.065 32.8445 24.3489 32.5523 24.7005 32.5523H36.3407C36.6787 32.5523 36.9762 32.8312 36.9762 33.1766V41.6102C36.9762 41.9422 36.6922 42.2344 36.3407 42.2344H32.8797C32.3254 42.2344 31.8658 42.6859 31.8658 43.2305C31.8658 43.775 32.3119 44.2266 32.8662 44.2266ZM34.3939 30.5867H26.6067V28.7406C26.6067 26.6289 28.3507 24.9156 30.5003 24.9156C32.6499 24.9156 34.3939 26.6289 34.3939 28.7406V30.5867Z" fill="black"/>
<path d="M30.4999 17.6508C21.3202 17.6508 13.8574 24.982 13.8574 34C13.8574 43.018 21.3202 50.3492 30.4999 50.3492C34.5017 50.3492 38.3818 48.9281 41.3967 46.3516C44.3845 43.8016 46.3583 40.2953 46.9532 36.4703C47.0343 35.9258 46.6557 35.4211 46.1014 35.3414C45.5471 35.2617 45.0334 35.6336 44.9523 36.1781C43.8842 43.1242 37.6653 48.357 30.4999 48.357C22.4423 48.357 15.8853 41.9156 15.8853 34C15.8853 26.0844 22.4423 19.643 30.4999 19.643C37.6653 19.643 43.8707 24.8758 44.9523 31.8219C45.0334 32.3664 45.5471 32.7383 46.1014 32.6586C46.6557 32.5789 47.0343 32.0742 46.9532 31.5297C45.7229 23.5609 38.7198 17.6508 30.4999 17.6508Z" fill="black"/>
</g>
<defs>
<clipPath id="clip0">
<rect width="61" height="68" fill="white"/>
</clipPath>
</defs>
</svg>
