<svg width="50" height="50" viewBox="0 0 50 50" fill="none" xmlns="http://www.w3.org/2000/svg">
<path d="M13.9386 41.6968C15.9565 41.6968 17.5974 43.3738 17.5974 45.433C17.5974 47.4922 15.9565 49.1667 13.9386 49.1667C11.9208 49.1667 10.2775 47.4922 10.2775 45.433C10.2775 43.3738 11.9208 41.6968 13.9386 41.6968ZM41.1303 41.6968C43.1481 41.6968 44.7914 43.3738 44.7914 45.433C44.7914 47.4922 43.1481 49.1667 41.1303 49.1667C39.1124 49.1667 37.4715 47.4922 37.4715 45.433C37.4715 43.3738 39.1124 41.6968 41.1303 41.6968ZM2.70725 0.834147L2.9549 0.857905L7.98386 1.74817C8.79584 1.89121 9.41207 2.57926 9.47974 3.41774L11.8069 31.7091C11.9181 33.0654 13.008 34.0889 14.3444 34.0889H40.712C41.9686 34.0889 43.0512 33.132 43.2325 31.8644L45.5258 15.6891C45.608 15.117 45.3518 14.715 45.1923 14.5251C45.0328 14.3377 44.68 14.022 44.1121 14.022H18.1457C17.1452 14.022 16.3332 13.1934 16.3332 12.1725C16.3332 11.1515 17.1452 10.3229 18.1457 10.3229H44.1121C45.579 10.3229 46.9734 10.9739 47.9328 12.1059C48.8922 13.2378 49.3247 14.7348 49.1145 16.2194L46.8187 32.3946C46.3837 35.4699 43.7593 37.788 40.712 37.788H14.3444C11.1085 37.788 8.46476 35.3071 8.1941 32.0173L5.98533 5.14895L2.33625 4.5053C1.35028 4.3302 0.690542 3.37335 0.859705 2.36717C1.02887 1.35853 1.95684 0.695141 2.9549 0.857905L2.70725 0.834147ZM36.8386 19.4391C37.8391 19.4391 38.6511 20.2677 38.6511 21.2887C38.6511 22.3097 37.8391 23.1383 36.8386 23.1383H30.1374C29.1345 23.1383 28.3249 22.3097 28.3249 21.2887C28.3249 20.2677 29.1345 19.4391 30.1374 19.4391H36.8386Z" fill="black"/>
</svg>
