<svg width="57" height="58" viewBox="0 0 57 58" fill="none" xmlns="http://www.w3.org/2000/svg">
<g clip-path="url(#clip0)">
<path d="M48.1633 40.1809C46.0272 40.1809 44.071 40.9512 42.542 42.2199L40.2373 39.875C42.5757 37.2469 44.071 33.8371 44.2734 30.0875H46.5556C46.9603 32.557 49.0852 34.4375 51.6485 34.4375C54.4929 34.4375 56.8089 32.1039 56.8089 29.2379C56.8089 26.3719 54.4929 24.0383 51.6485 24.0383C49.0852 24.0383 46.9603 25.9301 46.5556 28.3883H44.2734C44.2171 27.3801 44.0822 26.3945 43.8461 25.4316C43.7337 24.9785 43.2728 24.6953 42.8231 24.8086C42.3734 24.9219 42.0923 25.3863 42.2047 25.8395C42.4745 26.9383 42.6095 28.0824 42.6095 29.2379C42.6095 33.3047 40.9118 36.975 38.1911 39.5691C37.8313 36.2387 34.987 35.4684 32.8734 34.8906C32.7272 34.8566 32.5923 34.8113 32.4461 34.7773C32.2775 34.732 32.1426 34.5055 32.0414 34.2789C34.1438 32.8289 35.7065 30.348 35.7065 28.1957V26.2359C35.7065 23.8004 34.9308 21.7387 33.4692 20.2547C32.1651 18.9293 30.4 18.193 28.5112 18.159C28.5 18.159 28.4887 18.159 28.4775 18.159C27.4432 18.1816 26.4201 18.4195 25.5095 18.85C25.0935 19.0539 24.9136 19.5523 25.1047 19.9828C25.3071 20.402 25.8018 20.5832 26.229 20.3906C26.926 20.0621 27.7018 19.8809 28.4887 19.8582C30.9171 19.9035 33.5029 21.5914 33.9414 25.1598C33.6041 25.0012 33.3793 24.7746 33.1432 24.5254C32.671 24.0383 32.0189 23.3699 30.6698 23.7098C30.3438 23.8004 30.0627 23.8684 29.8154 23.9363C29.1183 24.1289 28.7698 24.2195 28.4887 24.2195C28.2077 24.2195 27.8592 24.1289 27.1621 23.9363C26.9148 23.8684 26.645 23.8004 26.3077 23.7098C24.9586 23.3586 24.3065 24.027 23.8343 24.5254C23.5982 24.7746 23.3734 25.0012 23.0361 25.1598C23.1598 24.1289 23.4633 23.2227 23.9467 22.441C24.1941 22.0445 24.0704 21.5234 23.6769 21.2742C23.2834 21.025 22.7663 21.1496 22.5189 21.5461C21.7095 22.8602 21.2935 24.4348 21.2935 26.2359V28.1957C21.2935 30.3594 22.8562 32.8289 24.9586 34.2789C24.8574 34.5168 24.7225 34.732 24.5538 34.7773C24.4189 34.8113 24.2728 34.8566 24.1379 34.8906C22.0243 35.457 19.1799 36.2273 18.8201 39.5691C16.0994 36.9637 14.3905 33.2934 14.3905 29.2266C14.3905 21.3875 20.7201 15.0098 28.5 15.0098C33.4805 15.0098 38.1461 17.7059 40.6757 22.0445C40.6757 22.0445 40.6757 22.0559 40.687 22.0559C40.7319 22.1238 40.7769 22.2031 40.8106 22.2824L40.8444 22.3504C41.0692 22.7582 41.5864 22.9055 41.9911 22.6789C42.3958 22.4523 42.542 21.9312 42.3171 21.5234L42.2834 21.4555C42.2272 21.3648 42.1822 21.2629 42.126 21.1723C41.5864 20.2434 40.9568 19.3824 40.2373 18.5895L42.587 16.1992C44.026 17.2188 45.7799 17.8191 47.6686 17.8191C49.8047 17.8191 51.7722 17.0488 53.3012 15.7687C53.3461 15.7348 53.3911 15.6895 53.4361 15.6555C55.3136 14.0242 56.5053 11.6113 56.5053 8.91523C56.5053 3.99883 52.5367 0 47.6686 0C42.8006 0 38.8319 3.99883 38.8319 8.90391C38.8319 11.3055 39.7763 13.4805 41.3053 15.0777L39.0455 17.3773C38.2473 16.6637 37.3816 16.018 36.4597 15.4742C34.2899 14.1941 31.8503 13.4691 29.3432 13.3332V11.0336C31.7941 10.6258 33.6603 8.48477 33.6603 5.90195C33.6603 3.03594 31.3444 0.702344 28.5 0.702344C25.6556 0.702344 23.3396 3.03594 23.3396 5.90195C23.3396 8.48477 25.2171 10.6258 27.6568 11.0336V13.3332C23.9355 13.5371 20.5515 15.0324 17.9544 17.3887L15.6834 15.1004C17.2237 13.4918 18.1793 11.3168 18.1793 8.90391C18.168 3.99883 14.2106 0 9.33136 0C4.45207 0 0.494674 3.99883 0.494674 8.90391C0.494674 11.5887 1.68639 14.0129 3.5639 15.6441C3.60887 15.6895 3.65384 15.7234 3.69882 15.7574C5.22781 17.0488 7.19526 17.8191 9.33136 17.8191C11.2089 17.8191 12.9515 17.2188 14.3905 16.2105L16.7627 18.6008C14.4243 21.2289 12.929 24.6387 12.7379 28.3883H10.4556C10.0509 25.9188 7.92603 24.0383 5.36272 24.0383C2.51834 24.0383 0.202367 26.3719 0.202367 29.2379C0.202367 32.1039 2.51834 34.4375 5.36272 34.4375C7.92603 34.4375 10.0509 32.5457 10.4556 30.0875H12.7379C12.929 33.8371 14.4243 37.2469 16.7627 39.875L14.458 42.1973C12.929 40.9285 10.9728 40.1582 8.83668 40.1582C3.96864 40.1469 0 44.1457 0 49.0508C0 53.9559 3.96864 57.9547 8.83668 57.9547C13.7047 57.9547 17.6734 53.9559 17.6734 49.0508C17.6734 46.8984 16.9089 44.9273 15.6497 43.3867L17.9544 41.0645C18.1568 41.2457 18.3592 41.427 18.5728 41.5969C18.7751 41.7668 18.9775 41.9594 19.2136 42.0953C21.6083 43.8625 24.5201 44.9613 27.6568 45.1312V47.4309C25.2059 47.8387 23.3396 49.9797 23.3396 52.5625C23.3396 55.4285 25.6556 57.7621 28.5 57.7621C31.3444 57.7621 33.6603 55.4285 33.6603 52.5625C33.6603 49.9797 31.7828 47.8387 29.3432 47.4309V45.1312C32.4911 44.9613 35.3917 43.8625 37.7864 42.0953C37.8426 42.0613 37.8988 42.0273 37.9438 41.982C38.326 41.6988 38.6858 41.393 39.0343 41.0758L41.339 43.4207C40.0686 44.9613 39.3154 46.9437 39.3154 49.0961C39.3154 51.7809 40.4958 54.1937 42.3734 55.825C42.4183 55.8816 42.4745 55.927 42.542 55.9723C44.071 57.241 46.0272 58.0113 48.1633 58.0113C50.2994 58.0113 52.2556 57.241 53.7846 55.9723C53.8408 55.927 53.897 55.8816 53.9532 55.825C55.8195 54.1937 57.0112 51.7809 57.0112 49.0961C57 44.1797 53.0313 40.1809 48.1633 40.1809ZM51.6485 25.7262C53.571 25.7262 55.1225 27.3008 55.1225 29.2266C55.1225 31.1637 53.5597 32.727 51.6485 32.727C49.7373 32.727 48.1745 31.1523 48.1745 29.2266C48.1633 27.3008 49.726 25.7262 51.6485 25.7262ZM47.6686 16.1199C46.0609 16.1199 44.5769 15.5762 43.3739 14.6699C43.4976 13.2766 44.2958 12.0305 45.4876 11.3168C46.1284 11.702 46.8704 11.9285 47.6574 11.9285C48.4444 11.9285 49.1976 11.702 49.8272 11.3168C51.0302 12.0305 51.8171 13.2766 51.9408 14.6699C50.7603 15.5762 49.2763 16.1199 47.6686 16.1199ZM45.139 7.68047C45.139 6.27578 46.2745 5.13164 47.6686 5.13164C49.0627 5.13164 50.1982 6.27578 50.1982 7.68047C50.1982 9.08516 49.0627 10.2293 47.6686 10.2293C46.2745 10.2293 45.139 9.08516 45.139 7.68047ZM40.5183 8.90391C40.5183 4.92773 43.7225 1.69922 47.6686 1.69922C51.6148 1.69922 54.8189 4.92773 54.8189 8.90391C54.8189 10.5238 54.2793 12.0305 53.3799 13.2313C52.9864 11.9852 52.1881 10.8863 51.1089 10.116C51.5923 9.425 51.8846 8.57539 51.8846 7.66914C51.8846 5.32422 49.9958 3.42109 47.6686 3.42109C45.3414 3.42109 43.4526 5.32422 43.4526 7.66914C43.4526 8.57539 43.7337 9.425 44.2284 10.116C43.1491 10.8863 42.3621 11.9738 41.9574 13.2313C41.0467 12.0305 40.5183 10.5352 40.5183 8.90391ZM25.026 5.90195C25.026 3.97617 26.5887 2.40156 28.5 2.40156C30.4225 2.40156 31.974 3.97617 31.974 5.90195C31.974 7.83906 30.4112 9.40234 28.5 9.40234C26.5887 9.40234 25.026 7.82773 25.026 5.90195ZM9.33136 16.1199C7.72367 16.1199 6.23964 15.5762 5.03668 14.6699C5.16035 13.2766 5.95858 12.0305 7.15029 11.3168C7.79112 11.702 8.53313 11.9285 9.32012 11.9285C10.1071 11.9285 10.8604 11.702 11.4899 11.3168C12.6929 12.0305 13.4799 13.2766 13.6035 14.6699C12.4231 15.5762 10.939 16.1199 9.33136 16.1199ZM6.80177 7.68047C6.80177 6.27578 7.93727 5.13164 9.33136 5.13164C10.7254 5.13164 11.8609 6.27578 11.8609 7.68047C11.8609 9.08516 10.7254 10.2293 9.33136 10.2293C7.93727 10.2293 6.80177 9.08516 6.80177 7.68047ZM12.7828 10.1273C13.2663 9.43633 13.5586 8.58672 13.5586 7.68047C13.5586 5.33555 11.6698 3.43242 9.3426 3.43242C7.01538 3.43242 5.12663 5.33555 5.12663 7.68047C5.12663 8.58672 5.40769 9.43633 5.90236 10.1273C4.82307 10.8977 4.03609 11.9852 3.63136 13.2426C2.73195 12.0418 2.19231 10.5352 2.19231 8.91523C2.18106 4.92773 5.38521 1.69922 9.33136 1.69922C13.2775 1.69922 16.4817 4.92773 16.4817 8.90391C16.4817 10.5238 15.942 12.0305 15.0426 13.2313C14.6491 11.9852 13.8509 10.8863 12.7828 10.1273ZM5.36272 32.7383C3.44024 32.7383 1.88876 31.1637 1.88876 29.2379C1.88876 27.3121 3.45148 25.7375 5.36272 25.7375C7.27396 25.7375 8.83668 27.3008 8.83668 29.2266C8.83668 31.1637 7.27396 32.7383 5.36272 32.7383ZM8.83668 56.2668C7.22899 56.2668 5.74497 55.723 4.54201 54.8168C4.66568 53.4234 5.4639 52.1773 6.65562 51.4637C7.29645 51.8488 8.03846 52.0754 8.83668 52.0754C9.63491 52.0754 10.3769 51.8488 11.0065 51.4637C12.2095 52.1773 12.9964 53.4234 13.1201 54.8168C11.9284 55.723 10.4444 56.2668 8.83668 56.2668ZM6.3071 47.8273C6.3071 46.4227 7.4426 45.2785 8.83668 45.2785C10.2308 45.2785 11.3663 46.4227 11.3663 47.8273C11.3663 49.232 10.2308 50.3762 8.83668 50.3762C7.4426 50.3762 6.3071 49.232 6.3071 47.8273ZM14.5479 53.3781C14.1544 52.132 13.3562 51.0332 12.2769 50.2629C12.7603 49.5719 13.0527 48.7336 13.0527 47.816C13.0527 45.4711 11.1639 43.568 8.83668 43.568C6.50946 43.568 4.62071 45.4711 4.62071 47.816C4.62071 48.7223 4.90177 49.5719 5.38521 50.2629C4.30592 51.0332 3.51893 52.132 3.1142 53.3781C2.22603 52.1773 1.68639 50.682 1.68639 49.0508C1.68639 45.0746 4.89053 41.8461 8.83668 41.8461C12.7828 41.8461 15.987 45.0746 15.987 49.0508C15.987 50.682 15.4586 52.1773 14.5479 53.3781ZM22.9911 28.1844V26.9609C24.0816 26.7004 24.655 26.1227 25.0598 25.7035C25.4532 25.2957 25.5095 25.2391 25.9029 25.3523C26.229 25.4316 26.4988 25.5109 26.7349 25.5789C27.5444 25.7941 27.9941 25.9188 28.5 25.9188C29.0059 25.9188 29.4444 25.7941 30.2651 25.5789C30.5012 25.5109 30.7822 25.443 31.097 25.3523C31.5018 25.2504 31.5467 25.2957 31.9402 25.7035C32.345 26.1113 32.9071 26.7004 34.0089 26.9609V28.1844C34.0089 30.1668 31.9964 32.727 29.7929 33.5539C28.8373 33.9164 28.1627 33.9164 27.1958 33.5539C24.9923 32.727 22.9911 30.1668 22.9911 28.1844ZM31.3219 36.0801L28.9384 37.4961C28.9272 37.5074 28.916 37.5074 28.9047 37.5188C28.5112 37.7793 28.4887 37.7793 28.1065 37.5188C28.0953 37.5074 28.084 37.5074 28.0728 37.4961L25.6781 36.0801C26.0491 35.7969 26.2852 35.423 26.4538 35.0719C26.51 35.0945 26.5663 35.1172 26.6112 35.1398C27.2858 35.3891 27.8929 35.5137 28.5 35.5137C29.1071 35.5137 29.7142 35.3891 30.3887 35.1398C30.445 35.1172 30.5012 35.0945 30.5574 35.0719C30.7148 35.423 30.9621 35.7969 31.3219 36.0801ZM31.974 52.5625C31.974 54.4996 30.4112 56.0629 28.5 56.0629C26.5887 56.0629 25.026 54.4883 25.026 52.5625C25.026 50.6367 26.5887 49.0621 28.5 49.0621C30.4112 49.0621 31.974 50.6254 31.974 52.5625ZM36.5384 40.9172C34.2562 42.5145 31.4905 43.4547 28.5 43.4547C25.5207 43.4547 22.7438 42.5145 20.4615 40.9172V40.2941C20.4615 38.1645 21.6195 37.4281 23.5757 36.8164L27.1958 38.9574C27.668 39.2633 28.084 39.4105 28.5 39.4105C28.916 39.4105 29.3319 39.2633 29.8041 38.9574L33.4242 36.8164C35.3805 37.4281 36.5384 38.1645 36.5384 40.2941V40.9172ZM48.1633 56.3008C46.5556 56.3008 45.0716 55.757 43.8686 54.8508C43.9923 53.4574 44.7905 52.2113 45.9822 51.4977C46.6231 51.8828 47.3651 52.1094 48.1521 52.1094C48.9503 52.1094 49.6923 51.8828 50.3331 51.4977C51.5248 52.2113 52.3231 53.4574 52.4467 54.8508C51.255 55.757 49.771 56.3008 48.1633 56.3008ZM45.6337 47.8613C45.6337 46.4566 46.7692 45.3125 48.1633 45.3125C49.5574 45.3125 50.6929 46.4566 50.6929 47.8613C50.6929 49.266 49.5574 50.4102 48.1633 50.4102C46.7692 50.4102 45.6337 49.266 45.6337 47.8613ZM53.8745 53.4234C53.481 52.1773 52.6828 51.0785 51.6035 50.3082C52.087 49.6172 52.368 48.7789 52.368 47.8613C52.368 45.5164 50.4793 43.6133 48.1521 43.6133C45.8248 43.6133 43.9361 45.5164 43.9361 47.8613C43.9361 48.7676 44.2171 49.6172 44.7118 50.3082C43.6325 51.0785 42.8455 52.1773 42.4408 53.4234C41.5414 52.2227 41.0018 50.716 41.0018 49.0961C41.0018 45.1199 44.2059 41.8914 48.1521 41.8914C52.0982 41.8914 55.3023 45.1199 55.3023 49.0961C55.3136 50.716 54.7739 52.2113 53.8745 53.4234Z" fill="black"/>
</g>
<defs>
<clipPath id="clip0">
<rect width="57" height="58" fill="white"/>
</clipPath>
</defs>
</svg>
