<svg width="54" height="54" viewBox="0 0 54 54" fill="none" xmlns="http://www.w3.org/2000/svg">
<path d="M50.3509 16.0541H3.64817C3.06756 16.0541 2.51074 15.8234 2.10018 15.4129C1.68963 15.0023 1.45898 14.4455 1.45898 13.8649V3.64865C1.45898 3.06804 1.68963 2.51121 2.10018 2.10066C2.51074 1.69011 3.06756 1.45946 3.64817 1.45946H35.7563V2.91892H3.64817C3.45464 2.91892 3.26903 2.9958 3.13218 3.13265C2.99533 3.2695 2.91844 3.45511 2.91844 3.64865V13.8649C2.91844 14.0584 2.99533 14.244 3.13218 14.3809C3.26903 14.5177 3.45464 14.5946 3.64817 14.5946H50.3509C50.5444 14.5946 50.73 14.5177 50.8669 14.3809C51.0037 14.244 51.0806 14.0584 51.0806 13.8649V3.64865C51.0806 3.45511 51.0037 3.2695 50.8669 3.13265C50.73 2.9958 50.5444 2.91892 50.3509 2.91892H38.6752V1.45946H50.3509C50.9315 1.45946 51.4883 1.69011 51.8989 2.10066C52.3094 2.51121 52.5401 3.06804 52.5401 3.64865V13.8649C52.5401 14.4455 52.3094 15.0023 51.8989 15.4129C51.4883 15.8234 50.9315 16.0541 50.3509 16.0541Z" fill="black"/>
<path d="M7.29661 10.9459C6.86363 10.9459 6.44037 10.8176 6.08036 10.577C5.72035 10.3364 5.43976 9.99454 5.27406 9.59452C5.10837 9.1945 5.06502 8.75433 5.14949 8.32967C5.23396 7.90501 5.44246 7.51493 5.74862 7.20877C6.05479 6.9026 6.44486 6.6941 6.86952 6.60963C7.29418 6.52516 7.73436 6.56851 8.13438 6.73421C8.5344 6.8999 8.87631 7.1805 9.11686 7.54051C9.35741 7.90052 9.4858 8.32378 9.4858 8.75676C9.4858 9.33737 9.25516 9.89419 8.8446 10.3047C8.43405 10.7153 7.87722 10.9459 7.29661 10.9459ZM7.29661 8.02703C7.15229 8.02703 7.0112 8.06982 6.8912 8.15001C6.77119 8.23019 6.67766 8.34416 6.62243 8.4775C6.5672 8.61084 6.55275 8.75757 6.5809 8.89912C6.60906 9.04067 6.67856 9.1707 6.78062 9.27275C6.88267 9.37481 7.0127 9.44431 7.15425 9.47246C7.2958 9.50062 7.44253 9.48617 7.57587 9.43094C7.70921 9.37571 7.82318 9.28218 7.90336 9.16217C7.98354 9.04217 8.02634 8.90108 8.02634 8.75676C8.02634 8.56322 7.94946 8.37761 7.81261 8.24076C7.67576 8.10391 7.49015 8.02703 7.29661 8.02703Z" fill="black"/>
<path d="M13.1345 10.9459C12.7015 10.9459 12.2783 10.8176 11.9183 10.577C11.5582 10.3364 11.2777 9.99454 11.112 9.59452C10.9463 9.1945 10.9029 8.75433 10.9874 8.32967C11.0718 7.90501 11.2803 7.51493 11.5865 7.20877C11.8927 6.9026 12.2828 6.6941 12.7074 6.60963C13.1321 6.52516 13.5722 6.56851 13.9723 6.73421C14.3723 6.8999 14.7142 7.1805 14.9548 7.54051C15.1953 7.90052 15.3237 8.32378 15.3237 8.75676C15.3237 9.33737 15.0931 9.89419 14.6825 10.3047C14.2719 10.7153 13.7151 10.9459 13.1345 10.9459ZM13.1345 8.02703C12.9902 8.02703 12.8491 8.06982 12.7291 8.15001C12.6091 8.23019 12.5156 8.34416 12.4603 8.4775C12.4051 8.61084 12.3906 8.75757 12.4188 8.89912C12.447 9.04067 12.5165 9.1707 12.6185 9.27275C12.7206 9.37481 12.8506 9.44431 12.9921 9.47246C13.1337 9.50062 13.2804 9.48617 13.4138 9.43094C13.5471 9.37571 13.6611 9.28218 13.7413 9.16217C13.8214 9.04217 13.8642 8.90108 13.8642 8.75676C13.8642 8.56322 13.7874 8.37761 13.6505 8.24076C13.5137 8.10391 13.328 8.02703 13.1345 8.02703Z" fill="black"/>
<path d="M18.9743 10.9459C18.5414 10.9459 18.1181 10.8176 17.7581 10.577C17.3981 10.3364 17.1175 9.99454 16.9518 9.59452C16.7861 9.1945 16.7428 8.75433 16.8272 8.32967C16.9117 7.90501 17.1202 7.51493 17.4264 7.20877C17.7325 6.9026 18.1226 6.6941 18.5473 6.60963C18.9719 6.52516 19.4121 6.56851 19.8121 6.73421C20.2121 6.8999 20.554 7.1805 20.7946 7.54051C21.0351 7.90052 21.1635 8.32378 21.1635 8.75676C21.1635 9.33737 20.9329 9.89419 20.5223 10.3047C20.1118 10.7153 19.555 10.9459 18.9743 10.9459ZM18.9743 8.02703C18.83 8.02703 18.6889 8.06982 18.5689 8.15001C18.4489 8.23019 18.3554 8.34416 18.3002 8.4775C18.2449 8.61084 18.2305 8.75757 18.2586 8.89912C18.2868 9.04067 18.3563 9.1707 18.4584 9.27275C18.5604 9.37481 18.6904 9.44431 18.832 9.47246C18.9735 9.50062 19.1203 9.48617 19.2536 9.43094C19.3869 9.37571 19.5009 9.28218 19.5811 9.16217C19.6613 9.04217 19.7041 8.90108 19.7041 8.75676C19.7041 8.56322 19.6272 8.37761 19.4903 8.24076C19.3535 8.10391 19.1679 8.02703 18.9743 8.02703Z" fill="black"/>
<path d="M27 8.02703H48.8919V9.48649H27V8.02703Z" fill="black"/>
<path d="M50.3509 34.2973H3.64817C3.06756 34.2973 2.51074 34.0666 2.10018 33.6561C1.68963 33.2455 1.45898 32.6887 1.45898 32.1081V21.8919C1.45898 21.3113 1.68963 20.7545 2.10018 20.3439C2.51074 19.9333 3.06756 19.7027 3.64817 19.7027H50.3509C50.9315 19.7027 51.4883 19.9333 51.8989 20.3439C52.3094 20.7545 52.5401 21.3113 52.5401 21.8919V32.1081C52.5401 32.6887 52.3094 33.2455 51.8989 33.6561C51.4883 34.0666 50.9315 34.2973 50.3509 34.2973ZM3.64817 21.1622C3.45464 21.1622 3.26903 21.239 3.13218 21.3759C2.99533 21.5127 2.91844 21.6984 2.91844 21.8919V32.1081C2.91844 32.3016 2.99533 32.4872 3.13218 32.6241C3.26903 32.7609 3.45464 32.8378 3.64817 32.8378H50.3509C50.5444 32.8378 50.73 32.7609 50.8669 32.6241C51.0037 32.4872 51.0806 32.3016 51.0806 32.1081V21.8919C51.0806 21.6984 51.0037 21.5127 50.8669 21.3759C50.73 21.239 50.5444 21.1622 50.3509 21.1622H3.64817Z" fill="black"/>
<path d="M7.29661 29.1892C6.86363 29.1892 6.44037 29.0608 6.08036 28.8202C5.72035 28.5797 5.43976 28.2378 5.27406 27.8378C5.10837 27.4377 5.06502 26.9976 5.14949 26.5729C5.23396 26.1482 5.44246 25.7582 5.74862 25.452C6.05479 25.1458 6.44486 24.9373 6.86952 24.8529C7.29418 24.7684 7.73436 24.8118 8.13438 24.9775C8.5344 25.1431 8.87631 25.4237 9.11686 25.7837C9.35741 26.1438 9.4858 26.567 9.4858 27C9.4858 27.5806 9.25516 28.1374 8.8446 28.548C8.43405 28.9585 7.87722 29.1892 7.29661 29.1892ZM7.29661 26.2703C7.15229 26.2703 7.0112 26.3131 6.8912 26.3932C6.77119 26.4734 6.67766 26.5874 6.62243 26.7207C6.5672 26.8541 6.55275 27.0008 6.5809 27.1424C6.60906 27.2839 6.67856 27.4139 6.78062 27.516C6.88267 27.618 7.0127 27.6875 7.15425 27.7157C7.2958 27.7439 7.44253 27.7294 7.57587 27.6742C7.70921 27.6189 7.82318 27.5254 7.90336 27.4054C7.98354 27.2854 8.02634 27.1443 8.02634 27C8.02634 26.8065 7.94946 26.6208 7.81261 26.484C7.67576 26.3471 7.49015 26.2703 7.29661 26.2703Z" fill="black"/>
<path d="M13.1345 29.1892C12.7015 29.1892 12.2783 29.0608 11.9183 28.8202C11.5582 28.5797 11.2777 28.2378 11.112 27.8378C10.9463 27.4377 10.9029 26.9976 10.9874 26.5729C11.0718 26.1482 11.2803 25.7582 11.5865 25.452C11.8927 25.1458 12.2828 24.9373 12.7074 24.8529C13.1321 24.7684 13.5722 24.8118 13.9723 24.9775C14.3723 25.1431 14.7142 25.4237 14.9548 25.7837C15.1953 26.1438 15.3237 26.567 15.3237 27C15.3237 27.5806 15.0931 28.1374 14.6825 28.548C14.2719 28.9585 13.7151 29.1892 13.1345 29.1892ZM13.1345 26.2703C12.9902 26.2703 12.8491 26.3131 12.7291 26.3932C12.6091 26.4734 12.5156 26.5874 12.4603 26.7207C12.4051 26.8541 12.3906 27.0008 12.4188 27.1424C12.447 27.2839 12.5165 27.4139 12.6185 27.516C12.7206 27.618 12.8506 27.6875 12.9921 27.7157C13.1337 27.7439 13.2804 27.7294 13.4138 27.6742C13.5471 27.6189 13.6611 27.5254 13.7413 27.4054C13.8214 27.2854 13.8642 27.1443 13.8642 27C13.8642 26.8065 13.7874 26.6208 13.6505 26.484C13.5137 26.3471 13.328 26.2703 13.1345 26.2703Z" fill="black"/>
<path d="M18.9743 29.1892C18.5414 29.1892 18.1181 29.0608 17.7581 28.8202C17.3981 28.5797 17.1175 28.2378 16.9518 27.8378C16.7861 27.4377 16.7428 26.9976 16.8272 26.5729C16.9117 26.1482 17.1202 25.7582 17.4264 25.452C17.7325 25.1458 18.1226 24.9373 18.5473 24.8529C18.9719 24.7684 19.4121 24.8118 19.8121 24.9775C20.2121 25.1431 20.554 25.4237 20.7946 25.7837C21.0351 26.1438 21.1635 26.567 21.1635 27C21.1635 27.5806 20.9329 28.1374 20.5223 28.548C20.1118 28.9585 19.555 29.1892 18.9743 29.1892ZM18.9743 26.2703C18.83 26.2703 18.6889 26.3131 18.5689 26.3932C18.4489 26.4734 18.3554 26.5874 18.3002 26.7207C18.2449 26.8541 18.2305 27.0008 18.2586 27.1424C18.2868 27.2839 18.3563 27.4139 18.4584 27.516C18.5604 27.618 18.6904 27.6875 18.832 27.7157C18.9735 27.7439 19.1203 27.7294 19.2536 27.6742C19.3869 27.6189 19.5009 27.5254 19.5811 27.4054C19.6613 27.2854 19.7041 27.1443 19.7041 27C19.7041 26.8065 19.6272 26.6208 19.4903 26.484C19.3535 26.3471 19.1679 26.2703 18.9743 26.2703Z" fill="black"/>
<path d="M27 26.2703H48.8919V27.7297H27V26.2703Z" fill="black"/>
<path d="M50.3509 52.5405H42.3238V51.0811H50.3509C50.5444 51.0811 50.73 51.0042 50.8669 50.8674C51.0037 50.7305 51.0806 50.5449 51.0806 50.3514V40.1351C51.0806 39.9416 51.0037 39.756 50.8669 39.6191C50.73 39.4823 50.5444 39.4054 50.3509 39.4054H3.64817C3.45464 39.4054 3.26903 39.4823 3.13218 39.6191C2.99533 39.756 2.91844 39.9416 2.91844 40.1351V50.3514C2.91844 50.5449 2.99533 50.7305 3.13218 50.8674C3.26903 51.0042 3.45464 51.0811 3.64817 51.0811H39.4049V52.5405H3.64817C3.06756 52.5405 2.51074 52.3099 2.10018 51.8993C1.68963 51.4888 1.45898 50.932 1.45898 50.3514V40.1351C1.45898 39.5545 1.68963 38.9977 2.10018 38.5871C2.51074 38.1766 3.06756 37.9459 3.64817 37.9459H50.3509C50.9315 37.9459 51.4883 38.1766 51.8989 38.5871C52.3094 38.9977 52.5401 39.5545 52.5401 40.1351V50.3514C52.5401 50.932 52.3094 51.4888 51.8989 51.8993C51.4883 52.3099 50.9315 52.5405 50.3509 52.5405Z" fill="black"/>
<path d="M7.29661 47.4324C6.86363 47.4324 6.44037 47.304 6.08036 47.0635C5.72035 46.8229 5.43976 46.481 5.27406 46.081C5.10837 45.681 5.06502 45.2408 5.14949 44.8162C5.23396 44.3915 5.44246 44.0014 5.74862 43.6953C6.05479 43.3891 6.44486 43.1806 6.86952 43.0961C7.29418 43.0117 7.73436 43.055 8.13438 43.2207C8.5344 43.3864 8.87631 43.667 9.11686 44.027C9.35741 44.387 9.4858 44.8103 9.4858 45.2432C9.4858 45.8239 9.25516 46.3807 8.8446 46.7912C8.43405 47.2018 7.87722 47.4324 7.29661 47.4324ZM7.29661 44.5135C7.15229 44.5135 7.0112 44.5563 6.8912 44.6365C6.77119 44.7167 6.67766 44.8307 6.62243 44.964C6.5672 45.0973 6.55275 45.2441 6.5809 45.3856C6.60906 45.5272 6.67856 45.6572 6.78062 45.7592C6.88267 45.8613 7.0127 45.9308 7.15425 45.959C7.2958 45.9871 7.44253 45.9727 7.57587 45.9174C7.70921 45.8622 7.82318 45.7687 7.90336 45.6487C7.98354 45.5287 8.02634 45.3876 8.02634 45.2432C8.02634 45.0497 7.94946 44.8641 7.81261 44.7272C7.67576 44.5904 7.49015 44.5135 7.29661 44.5135Z" fill="black"/>
<path d="M13.1345 47.4324C12.7015 47.4324 12.2783 47.304 11.9183 47.0635C11.5582 46.8229 11.2777 46.481 11.112 46.081C10.9463 45.681 10.9029 45.2408 10.9874 44.8162C11.0718 44.3915 11.2803 44.0014 11.5865 43.6953C11.8927 43.3891 12.2828 43.1806 12.7074 43.0961C13.1321 43.0117 13.5722 43.055 13.9723 43.2207C14.3723 43.3864 14.7142 43.667 14.9548 44.027C15.1953 44.387 15.3237 44.8103 15.3237 45.2432C15.3237 45.8239 15.0931 46.3807 14.6825 46.7912C14.2719 47.2018 13.7151 47.4324 13.1345 47.4324ZM13.1345 44.5135C12.9902 44.5135 12.8491 44.5563 12.7291 44.6365C12.6091 44.7167 12.5156 44.8307 12.4603 44.964C12.4051 45.0973 12.3906 45.2441 12.4188 45.3856C12.447 45.5272 12.5165 45.6572 12.6185 45.7592C12.7206 45.8613 12.8506 45.9308 12.9921 45.959C13.1337 45.9871 13.2804 45.9727 13.4138 45.9174C13.5471 45.8622 13.6611 45.7687 13.7413 45.6487C13.8214 45.5287 13.8642 45.3876 13.8642 45.2432C13.8642 45.0497 13.7874 44.8641 13.6505 44.7272C13.5137 44.5904 13.328 44.5135 13.1345 44.5135Z" fill="black"/>
<path d="M18.9743 47.4324C18.5414 47.4324 18.1181 47.304 17.7581 47.0635C17.3981 46.8229 17.1175 46.481 16.9518 46.081C16.7861 45.681 16.7428 45.2408 16.8272 44.8162C16.9117 44.3915 17.1202 44.0014 17.4264 43.6953C17.7325 43.3891 18.1226 43.1806 18.5473 43.0961C18.9719 43.0117 19.4121 43.055 19.8121 43.2207C20.2121 43.3864 20.554 43.667 20.7946 44.027C21.0351 44.387 21.1635 44.8103 21.1635 45.2432C21.1635 45.8239 20.9329 46.3807 20.5223 46.7912C20.1118 47.2018 19.555 47.4324 18.9743 47.4324ZM18.9743 44.5135C18.83 44.5135 18.6889 44.5563 18.5689 44.6365C18.4489 44.7167 18.3554 44.8307 18.3002 44.964C18.2449 45.0973 18.2305 45.2441 18.2586 45.3856C18.2868 45.5272 18.3563 45.6572 18.4584 45.7592C18.5604 45.8613 18.6904 45.9308 18.832 45.959C18.9735 45.9871 19.1203 45.9727 19.2536 45.9174C19.3869 45.8622 19.5009 45.7687 19.5811 45.6487C19.6613 45.5287 19.7041 45.3876 19.7041 45.2432C19.7041 45.0497 19.6272 44.8641 19.4903 44.7272C19.3535 44.5904 19.1679 44.5135 18.9743 44.5135Z" fill="black"/>
<path d="M27 44.5135H48.8919V45.973H27V44.5135Z" fill="black"/>
<path d="M44.5137 15.3243H45.9731V20.4324H44.5137V15.3243Z" fill="black"/>
<path d="M44.5137 33.9324H45.9731V39.0405H44.5137V33.9324Z" fill="black"/>
<path d="M8.02539 15.3243H9.48485V20.4324H8.02539V15.3243Z" fill="black"/>
<path d="M8.02539 33.9324H9.48485V39.0405H8.02539V33.9324Z" fill="black"/>
</svg>
