<svg width="110" height="81" viewBox="0 0 110 81" fill="none" xmlns="http://www.w3.org/2000/svg">
<path d="M60.3072 22.037L55.8915 22.0185V58.5596H51.1432V22.0185H37.5266V58.4486C35.9007 58.2265 34.3303 57.7455 32.8522 57.0424V31.0289H6.93072C6.24711 29.5672 5.78522 28.0131 5.56351 26.4219H32.8337V22.0185H1V24.2202C1 24.8678 1.03695 25.5338 1.09238 26.1814C2.01617 35.8949 9.66513 43.6101 19.3649 44.6092C20.3626 54.3227 28.067 61.9824 37.7667 62.9075C38.4134 62.963 39.0785 63 39.7252 63H41.9238V26.4404H46.7275V63H51.1247V62.963H55.873V63H58.0716C58.7182 63 59.3834 62.963 60.03 62.9075L60.2887 62.889V26.4404H92.4365C92.2148 28.0316 91.7529 29.5857 91.0693 31.0474H65.1663V61.8159L65.5358 61.6679C72.7598 58.8926 77.8037 52.306 78.6351 44.6092C88.3349 43.6101 95.9838 35.8949 96.9076 26.1814C96.9631 25.5338 97 24.8678 97 24.2202V22H60.3072V22.037ZM21.4711 40.3168C17.1478 40.3168 13.0092 38.5591 9.99769 35.4693H28.455V53.9526C25.4065 50.9368 23.7067 46.8294 23.6882 42.537V40.3168H21.4711ZM88.0208 35.4693C84.9908 38.5591 80.8522 40.3168 76.5289 40.3168H74.3303V42.537C74.3303 46.8294 72.612 50.9368 69.5635 53.9526V35.4693H88.0208Z" fill="#E6CC44"/>
</svg>
