<svg width="111" height="183" viewBox="0 0 111 183" fill="none" xmlns="http://www.w3.org/2000/svg">
<path d="M107.634 2.30864C107.634 3.06927 108.252 3.68588 109.015 3.68588C109.778 3.68588 110.396 3.06927 110.396 2.30864C110.396 1.54801 109.778 0.931396 109.015 0.931396C108.252 0.931396 107.634 1.54801 107.634 2.30864Z" fill="#E2E2E2"/>
<path d="M107.634 20.2402C107.634 21.0008 108.252 21.6174 109.015 21.6174C109.778 21.6174 110.396 21.0008 110.396 20.2402C110.396 19.4795 109.778 18.8629 109.015 18.8629C108.252 18.8629 107.634 19.4795 107.634 20.2402Z" fill="#E2E2E2"/>
<path d="M107.634 38.1716C107.634 38.9322 108.252 39.5488 109.015 39.5488C109.778 39.5488 110.396 38.9322 110.396 38.1716C110.396 37.4109 109.778 36.7943 109.015 36.7943C108.252 36.7943 107.634 37.4109 107.634 38.1716Z" fill="#E2E2E2"/>
<path d="M107.634 56.103C107.634 56.8636 108.252 57.4802 109.015 57.4802C109.778 57.4802 110.396 56.8636 110.396 56.103C110.396 55.3423 109.778 54.7257 109.015 54.7257C108.252 54.7257 107.634 55.3423 107.634 56.103Z" fill="#E2E2E2"/>
<path d="M107.634 74.0343C107.634 74.795 108.252 75.4116 109.015 75.4116C109.778 75.4116 110.396 74.795 110.396 74.0343C110.396 73.2737 109.778 72.6571 109.015 72.6571C108.252 72.6571 107.634 73.2737 107.634 74.0343Z" fill="#E2E2E2"/>
<path d="M107.634 91.9657C107.634 92.7264 108.252 93.343 109.015 93.343C109.778 93.343 110.396 92.7264 110.396 91.9657C110.396 91.2051 109.778 90.5885 109.015 90.5885C108.252 90.5885 107.634 91.2051 107.634 91.9657Z" fill="#E2E2E2"/>
<path d="M107.634 109.897C107.634 110.658 108.252 111.274 109.015 111.274C109.778 111.274 110.396 110.658 110.396 109.897C110.396 109.137 109.778 108.52 109.015 108.52C108.252 108.52 107.634 109.137 107.634 109.897Z" fill="#E2E2E2"/>
<path d="M107.634 127.829C107.634 128.589 108.252 129.206 109.015 129.206C109.778 129.206 110.396 128.589 110.396 127.829C110.396 127.068 109.778 126.451 109.015 126.451C108.252 126.451 107.634 127.068 107.634 127.829Z" fill="#E2E2E2"/>
<path d="M107.634 145.76C107.634 146.521 108.252 147.137 109.015 147.137C109.778 147.137 110.396 146.521 110.396 145.76C110.396 144.999 109.778 144.383 109.015 144.383C108.252 144.383 107.634 144.999 107.634 145.76Z" fill="#E2E2E2"/>
<path d="M107.634 163.691C107.634 164.452 108.252 165.069 109.015 165.069C109.778 165.069 110.396 164.452 110.396 163.691C110.396 162.931 109.778 162.314 109.015 162.314C108.252 162.314 107.634 162.931 107.634 163.691Z" fill="#E2E2E2"/>
<path d="M107.634 181.623C107.634 182.383 108.252 183 109.015 183C109.778 183 110.396 182.383 110.396 181.623C110.396 180.862 109.778 180.246 109.015 180.246C108.252 180.246 107.634 180.862 107.634 181.623Z" fill="#E2E2E2"/>
<path d="M89.695 2.30864C89.695 3.06927 90.3133 3.68588 91.076 3.68588C91.8387 3.68588 92.457 3.06927 92.457 2.30864C92.457 1.54801 91.8387 0.931396 91.076 0.931396C90.3133 0.931396 89.695 1.54801 89.695 2.30864Z" fill="#E2E2E2"/>
<path d="M89.695 20.24C89.695 21.0007 90.3133 21.6173 91.076 21.6173C91.8387 21.6173 92.457 21.0007 92.457 20.24C92.457 19.4794 91.8387 18.8628 91.076 18.8628C90.3133 18.8628 89.695 19.4794 89.695 20.24Z" fill="#E2E2E2"/>
<path d="M89.695 38.1714C89.695 38.9321 90.3133 39.5487 91.076 39.5487C91.8387 39.5487 92.457 38.9321 92.457 38.1714C92.457 37.4108 91.8387 36.7942 91.076 36.7942C90.3133 36.7942 89.695 37.4108 89.695 38.1714Z" fill="#E2E2E2"/>
<path d="M89.695 56.1028C89.695 56.8635 90.3133 57.4801 91.076 57.4801C91.8387 57.4801 92.457 56.8635 92.457 56.1028C92.457 55.3422 91.8387 54.7256 91.076 54.7256C90.3133 54.7256 89.695 55.3422 89.695 56.1028Z" fill="#E2E2E2"/>
<path d="M89.695 74.0342C89.695 74.7949 90.3133 75.4115 91.076 75.4115C91.8387 75.4115 92.457 74.7949 92.457 74.0342C92.457 73.2736 91.8387 72.657 91.076 72.657C90.3133 72.657 89.695 73.2736 89.695 74.0342Z" fill="#E2E2E2"/>
<path d="M89.695 91.9656C89.695 92.7262 90.3133 93.3429 91.076 93.3429C91.8387 93.3429 92.457 92.7262 92.457 91.9656C92.457 91.205 91.8387 90.5884 91.076 90.5884C90.3133 90.5884 89.695 91.205 89.695 91.9656Z" fill="#E2E2E2"/>
<path d="M89.695 109.897C89.695 110.658 90.3133 111.274 91.076 111.274C91.8387 111.274 92.457 110.658 92.457 109.897C92.457 109.137 91.8387 108.52 91.076 108.52C90.3133 108.52 89.695 109.137 89.695 109.897Z" fill="#E2E2E2"/>
<path d="M89.695 127.828C89.695 128.589 90.3133 129.206 91.076 129.206C91.8387 129.206 92.457 128.589 92.457 127.828C92.457 127.068 91.8387 126.451 91.076 126.451C90.3133 126.451 89.695 127.068 89.695 127.828Z" fill="#E2E2E2"/>
<path d="M89.695 145.76C89.695 146.52 90.3133 147.137 91.076 147.137C91.8387 147.137 92.457 146.52 92.457 145.76C92.457 144.999 91.8387 144.383 91.076 144.383C90.3133 144.383 89.695 144.999 89.695 145.76Z" fill="#E2E2E2"/>
<path d="M89.695 163.691C89.695 164.452 90.3133 165.069 91.076 165.069C91.8387 165.069 92.457 164.452 92.457 163.691C92.457 162.931 91.8387 162.314 91.076 162.314C90.3133 162.314 89.695 162.931 89.695 163.691Z" fill="#E2E2E2"/>
<path d="M89.695 181.623C89.695 182.383 90.3133 183 91.076 183C91.8387 183 92.457 182.383 92.457 181.623C92.457 180.862 91.8387 180.245 91.076 180.245C90.3133 180.245 89.695 180.862 89.695 181.623Z" fill="#E2E2E2"/>
<path d="M71.756 2.30864C71.756 3.06927 72.3743 3.68588 73.1371 3.68588C73.8998 3.68588 74.5181 3.06927 74.5181 2.30864C74.5181 1.54801 73.8998 0.931396 73.1371 0.931396C72.3743 0.931396 71.756 1.54801 71.756 2.30864Z" fill="#E2E2E2"/>
<path d="M71.756 20.24C71.756 21.0007 72.3743 21.6173 73.1371 21.6173C73.8998 21.6173 74.5181 21.0007 74.5181 20.24C74.5181 19.4794 73.8998 18.8628 73.1371 18.8628C72.3743 18.8628 71.756 19.4794 71.756 20.24Z" fill="#E2E2E2"/>
<path d="M71.756 38.1714C71.756 38.9321 72.3743 39.5487 73.1371 39.5487C73.8998 39.5487 74.5181 38.9321 74.5181 38.1714C74.5181 37.4108 73.8998 36.7942 73.1371 36.7942C72.3743 36.7942 71.756 37.4108 71.756 38.1714Z" fill="#E2E2E2"/>
<path d="M71.756 56.1028C71.756 56.8635 72.3743 57.4801 73.1371 57.4801C73.8998 57.4801 74.5181 56.8635 74.5181 56.1028C74.5181 55.3422 73.8998 54.7256 73.1371 54.7256C72.3743 54.7256 71.756 55.3422 71.756 56.1028Z" fill="#E2E2E2"/>
<path d="M71.756 74.0342C71.756 74.7949 72.3743 75.4115 73.1371 75.4115C73.8998 75.4115 74.5181 74.7949 74.5181 74.0342C74.5181 73.2736 73.8998 72.657 73.1371 72.657C72.3743 72.657 71.756 73.2736 71.756 74.0342Z" fill="#E2E2E2"/>
<path d="M71.756 91.9656C71.756 92.7262 72.3743 93.3429 73.1371 93.3429C73.8998 93.3429 74.5181 92.7262 74.5181 91.9656C74.5181 91.205 73.8998 90.5884 73.1371 90.5884C72.3743 90.5884 71.756 91.205 71.756 91.9656Z" fill="#E2E2E2"/>
<path d="M71.756 109.897C71.756 110.658 72.3743 111.274 73.1371 111.274C73.8998 111.274 74.5181 110.658 74.5181 109.897C74.5181 109.137 73.8998 108.52 73.1371 108.52C72.3743 108.52 71.756 109.137 71.756 109.897Z" fill="#E2E2E2"/>
<path d="M71.756 127.828C71.756 128.589 72.3743 129.206 73.1371 129.206C73.8998 129.206 74.5181 128.589 74.5181 127.828C74.5181 127.068 73.8998 126.451 73.1371 126.451C72.3743 126.451 71.756 127.068 71.756 127.828Z" fill="#E2E2E2"/>
<path d="M71.756 145.76C71.756 146.52 72.3743 147.137 73.1371 147.137C73.8998 147.137 74.5181 146.52 74.5181 145.76C74.5181 144.999 73.8998 144.383 73.1371 144.383C72.3743 144.383 71.756 144.999 71.756 145.76Z" fill="#E2E2E2"/>
<path d="M71.756 163.691C71.756 164.452 72.3743 165.069 73.1371 165.069C73.8998 165.069 74.5181 164.452 74.5181 163.691C74.5181 162.931 73.8998 162.314 73.1371 162.314C72.3743 162.314 71.756 162.931 71.756 163.691Z" fill="#E2E2E2"/>
<path d="M71.756 181.623C71.756 182.383 72.3743 183 73.1371 183C73.8998 183 74.5181 182.383 74.5181 181.623C74.5181 180.862 73.8998 180.245 73.1371 180.245C72.3743 180.245 71.756 180.862 71.756 181.623Z" fill="#E2E2E2"/>
<path d="M53.8171 2.30864C53.8171 3.06927 54.4354 3.68588 55.1981 3.68588C55.9608 3.68588 56.5791 3.06927 56.5791 2.30864C56.5791 1.54801 55.9608 0.931396 55.1981 0.931396C54.4354 0.931396 53.8171 1.54801 53.8171 2.30864Z" fill="#E2E2E2"/>
<path d="M53.8171 20.24C53.8171 21.0007 54.4354 21.6173 55.1981 21.6173C55.9608 21.6173 56.5791 21.0007 56.5791 20.24C56.5791 19.4794 55.9608 18.8628 55.1981 18.8628C54.4354 18.8628 53.8171 19.4794 53.8171 20.24Z" fill="#E2E2E2"/>
<path d="M53.8171 38.1714C53.8171 38.9321 54.4354 39.5487 55.1981 39.5487C55.9608 39.5487 56.5791 38.9321 56.5791 38.1714C56.5791 37.4108 55.9608 36.7942 55.1981 36.7942C54.4354 36.7942 53.8171 37.4108 53.8171 38.1714Z" fill="#E2E2E2"/>
<path d="M53.8171 56.1028C53.8171 56.8635 54.4354 57.4801 55.1981 57.4801C55.9608 57.4801 56.5791 56.8635 56.5791 56.1028C56.5791 55.3422 55.9608 54.7256 55.1981 54.7256C54.4354 54.7256 53.8171 55.3422 53.8171 56.1028Z" fill="#E2E2E2"/>
<path d="M53.8171 74.0342C53.8171 74.7949 54.4354 75.4115 55.1981 75.4115C55.9608 75.4115 56.5791 74.7949 56.5791 74.0342C56.5791 73.2736 55.9608 72.657 55.1981 72.657C54.4354 72.657 53.8171 73.2736 53.8171 74.0342Z" fill="#E2E2E2"/>
<path d="M53.8171 91.9656C53.8171 92.7262 54.4354 93.3429 55.1981 93.3429C55.9608 93.3429 56.5791 92.7262 56.5791 91.9656C56.5791 91.205 55.9608 90.5884 55.1981 90.5884C54.4354 90.5884 53.8171 91.205 53.8171 91.9656Z" fill="#E2E2E2"/>
<path d="M53.8171 109.897C53.8171 110.658 54.4354 111.274 55.1981 111.274C55.9608 111.274 56.5791 110.658 56.5791 109.897C56.5791 109.137 55.9608 108.52 55.1981 108.52C54.4354 108.52 53.8171 109.137 53.8171 109.897Z" fill="#E2E2E2"/>
<path d="M53.8171 127.828C53.8171 128.589 54.4354 129.206 55.1981 129.206C55.9608 129.206 56.5791 128.589 56.5791 127.828C56.5791 127.068 55.9608 126.451 55.1981 126.451C54.4354 126.451 53.8171 127.068 53.8171 127.828Z" fill="#E2E2E2"/>
<path d="M53.8171 145.76C53.8171 146.52 54.4354 147.137 55.1981 147.137C55.9608 147.137 56.5791 146.52 56.5791 145.76C56.5791 144.999 55.9608 144.383 55.1981 144.383C54.4354 144.383 53.8171 144.999 53.8171 145.76Z" fill="#E2E2E2"/>
<path d="M53.8171 163.691C53.8171 164.452 54.4354 165.069 55.1981 165.069C55.9608 165.069 56.5791 164.452 56.5791 163.691C56.5791 162.931 55.9608 162.314 55.1981 162.314C54.4354 162.314 53.8171 162.931 53.8171 163.691Z" fill="#E2E2E2"/>
<path d="M53.8171 181.623C53.8171 182.383 54.4354 183 55.1981 183C55.9608 183 56.5791 182.383 56.5791 181.623C56.5791 180.862 55.9608 180.245 55.1981 180.245C54.4354 180.245 53.8171 180.862 53.8171 181.623Z" fill="#E2E2E2"/>
<path d="M35.8781 2.30864C35.8781 3.06927 36.4964 3.68588 37.2591 3.68588C38.0218 3.68588 38.6401 3.06927 38.6401 2.30864C38.6401 1.54801 38.0218 0.931396 37.2591 0.931396C36.4964 0.931396 35.8781 1.54801 35.8781 2.30864Z" fill="#E2E2E2"/>
<path d="M35.8781 20.24C35.8781 21.0007 36.4964 21.6173 37.2591 21.6173C38.0218 21.6173 38.6401 21.0007 38.6401 20.24C38.6401 19.4794 38.0218 18.8628 37.2591 18.8628C36.4964 18.8628 35.8781 19.4794 35.8781 20.24Z" fill="#E2E2E2"/>
<path d="M35.8781 38.1714C35.8781 38.9321 36.4964 39.5487 37.2591 39.5487C38.0218 39.5487 38.6401 38.9321 38.6401 38.1714C38.6401 37.4108 38.0218 36.7942 37.2591 36.7942C36.4964 36.7942 35.8781 37.4108 35.8781 38.1714Z" fill="#E2E2E2"/>
<path d="M35.8781 56.1028C35.8781 56.8635 36.4964 57.4801 37.2591 57.4801C38.0218 57.4801 38.6401 56.8635 38.6401 56.1028C38.6401 55.3422 38.0218 54.7256 37.2591 54.7256C36.4964 54.7256 35.8781 55.3422 35.8781 56.1028Z" fill="#E2E2E2"/>
<path d="M35.8781 74.0343C35.8781 74.795 36.4964 75.4116 37.2591 75.4116C38.0218 75.4116 38.6401 74.795 38.6401 74.0343C38.6401 73.2737 38.0218 72.6571 37.2591 72.6571C36.4964 72.6571 35.8781 73.2737 35.8781 74.0343Z" fill="#E2E2E2"/>
<path d="M35.8781 91.9656C35.8781 92.7262 36.4964 93.3429 37.2591 93.3429C38.0218 93.3429 38.6401 92.7262 38.6401 91.9656C38.6401 91.205 38.0218 90.5884 37.2591 90.5884C36.4964 90.5884 35.8781 91.205 35.8781 91.9656Z" fill="#E2E2E2"/>
<path d="M35.8781 109.897C35.8781 110.658 36.4964 111.274 37.2591 111.274C38.0218 111.274 38.6401 110.658 38.6401 109.897C38.6401 109.137 38.0218 108.52 37.2591 108.52C36.4964 108.52 35.8781 109.137 35.8781 109.897Z" fill="#E2E2E2"/>
<path d="M35.8781 127.828C35.8781 128.589 36.4964 129.206 37.2591 129.206C38.0218 129.206 38.6401 128.589 38.6401 127.828C38.6401 127.068 38.0218 126.451 37.2591 126.451C36.4964 126.451 35.8781 127.068 35.8781 127.828Z" fill="#E2E2E2"/>
<path d="M35.8781 145.76C35.8781 146.52 36.4964 147.137 37.2591 147.137C38.0218 147.137 38.6401 146.52 38.6401 145.76C38.6401 144.999 38.0218 144.383 37.2591 144.383C36.4964 144.383 35.8781 144.999 35.8781 145.76Z" fill="#E2E2E2"/>
<path d="M35.8781 163.691C35.8781 164.452 36.4964 165.069 37.2591 165.069C38.0218 165.069 38.6401 164.452 38.6401 163.691C38.6401 162.931 38.0218 162.314 37.2591 162.314C36.4964 162.314 35.8781 162.931 35.8781 163.691Z" fill="#E2E2E2"/>
<path d="M35.8781 181.623C35.8781 182.383 36.4964 183 37.2591 183C38.0218 183 38.6401 182.383 38.6401 181.623C38.6401 180.862 38.0218 180.245 37.2591 180.245C36.4964 180.245 35.8781 180.862 35.8781 181.623Z" fill="#E2E2E2"/>
<path d="M17.9391 2.30864C17.9391 3.06927 18.5574 3.68588 19.3202 3.68588C20.0829 3.68588 20.7012 3.06927 20.7012 2.30864C20.7012 1.54801 20.0829 0.931396 19.3202 0.931396C18.5574 0.931396 17.9391 1.54801 17.9391 2.30864Z" fill="#E2E2E2"/>
<path d="M17.9391 20.24C17.9391 21.0007 18.5574 21.6173 19.3202 21.6173C20.0829 21.6173 20.7012 21.0007 20.7012 20.24C20.7012 19.4794 20.0829 18.8628 19.3202 18.8628C18.5574 18.8628 17.9391 19.4794 17.9391 20.24Z" fill="#E2E2E2"/>
<path d="M17.9391 38.1714C17.9391 38.9321 18.5574 39.5487 19.3202 39.5487C20.0829 39.5487 20.7012 38.9321 20.7012 38.1714C20.7012 37.4108 20.0829 36.7942 19.3202 36.7942C18.5574 36.7942 17.9391 37.4108 17.9391 38.1714Z" fill="#E2E2E2"/>
<path d="M17.9391 56.1028C17.9391 56.8635 18.5574 57.4801 19.3202 57.4801C20.0829 57.4801 20.7012 56.8635 20.7012 56.1028C20.7012 55.3422 20.0829 54.7256 19.3202 54.7256C18.5574 54.7256 17.9391 55.3422 17.9391 56.1028Z" fill="#E2E2E2"/>
<path d="M17.9391 74.0343C17.9391 74.795 18.5574 75.4116 19.3202 75.4116C20.0829 75.4116 20.7012 74.795 20.7012 74.0343C20.7012 73.2737 20.0829 72.6571 19.3202 72.6571C18.5574 72.6571 17.9391 73.2737 17.9391 74.0343Z" fill="#E2E2E2"/>
<path d="M17.9391 91.9656C17.9391 92.7262 18.5574 93.3429 19.3202 93.3429C20.0829 93.3429 20.7012 92.7262 20.7012 91.9656C20.7012 91.205 20.0829 90.5884 19.3202 90.5884C18.5574 90.5884 17.9391 91.205 17.9391 91.9656Z" fill="#E2E2E2"/>
<path d="M17.9391 109.897C17.9391 110.658 18.5574 111.274 19.3202 111.274C20.0829 111.274 20.7012 110.658 20.7012 109.897C20.7012 109.137 20.0829 108.52 19.3202 108.52C18.5574 108.52 17.9391 109.137 17.9391 109.897Z" fill="#E2E2E2"/>
<path d="M17.9391 127.828C17.9391 128.589 18.5574 129.206 19.3202 129.206C20.0829 129.206 20.7012 128.589 20.7012 127.828C20.7012 127.068 20.0829 126.451 19.3202 126.451C18.5574 126.451 17.9391 127.068 17.9391 127.828Z" fill="#E2E2E2"/>
<path d="M17.9391 145.76C17.9391 146.521 18.5574 147.137 19.3202 147.137C20.0829 147.137 20.7012 146.521 20.7012 145.76C20.7012 144.999 20.0829 144.383 19.3202 144.383C18.5574 144.383 17.9391 144.999 17.9391 145.76Z" fill="#E2E2E2"/>
<path d="M17.9391 163.691C17.9391 164.452 18.5574 165.069 19.3202 165.069C20.0829 165.069 20.7012 164.452 20.7012 163.691C20.7012 162.931 20.0829 162.314 19.3202 162.314C18.5574 162.314 17.9391 162.931 17.9391 163.691Z" fill="#E2E2E2"/>
<path d="M17.9391 181.623C17.9391 182.383 18.5574 183 19.3202 183C20.0829 183 20.7012 182.383 20.7012 181.623C20.7012 180.862 20.0829 180.245 19.3202 180.245C18.5574 180.245 17.9391 180.862 17.9391 181.623Z" fill="#E2E2E2"/>
<path d="M0.000182568 2.30864C0.000182535 3.06927 0.61848 3.68588 1.38119 3.68588C2.1439 3.68588 2.76221 3.06927 2.76221 2.30864C2.76221 1.54801 2.1439 0.931396 1.38119 0.931396C0.61848 0.931396 0.000182602 1.54801 0.000182568 2.30864Z" fill="#E2E2E2"/>
<path d="M0.000182568 20.24C0.000182535 21.0007 0.61848 21.6173 1.38119 21.6173C2.1439 21.6173 2.76221 21.0007 2.76221 20.24C2.76221 19.4794 2.1439 18.8628 1.38119 18.8628C0.61848 18.8628 0.000182602 19.4794 0.000182568 20.24Z" fill="#E2E2E2"/>
<path d="M0.000182568 38.1714C0.000182535 38.9321 0.61848 39.5487 1.38119 39.5487C2.1439 39.5487 2.76221 38.9321 2.76221 38.1714C2.76221 37.4108 2.1439 36.7942 1.38119 36.7942C0.61848 36.7942 0.000182602 37.4108 0.000182568 38.1714Z" fill="#E2E2E2"/>
<path d="M0.000182568 56.1028C0.000182535 56.8635 0.61848 57.4801 1.38119 57.4801C2.1439 57.4801 2.76221 56.8635 2.76221 56.1028C2.76221 55.3422 2.1439 54.7256 1.38119 54.7256C0.61848 54.7256 0.000182602 55.3422 0.000182568 56.1028Z" fill="#E2E2E2"/>
<path d="M0.000182568 74.0343C0.000182535 74.795 0.61848 75.4116 1.38119 75.4116C2.1439 75.4116 2.76221 74.795 2.76221 74.0343C2.76221 73.2737 2.1439 72.6571 1.38119 72.6571C0.61848 72.6571 0.000182602 73.2737 0.000182568 74.0343Z" fill="#E2E2E2"/>
<path d="M0.000182568 91.9656C0.000182535 92.7262 0.61848 93.3429 1.38119 93.3429C2.1439 93.3429 2.76221 92.7262 2.76221 91.9656C2.76221 91.205 2.1439 90.5884 1.38119 90.5884C0.61848 90.5884 0.000182602 91.205 0.000182568 91.9656Z" fill="#E2E2E2"/>
<path d="M0.000182568 109.897C0.000182535 110.658 0.61848 111.274 1.38119 111.274C2.1439 111.274 2.76221 110.658 2.76221 109.897C2.76221 109.137 2.1439 108.52 1.38119 108.52C0.61848 108.52 0.000182602 109.137 0.000182568 109.897Z" fill="#E2E2E2"/>
<path d="M0.000182568 127.828C0.000182535 128.589 0.61848 129.206 1.38119 129.206C2.1439 129.206 2.76221 128.589 2.76221 127.828C2.76221 127.068 2.1439 126.451 1.38119 126.451C0.61848 126.451 0.000182602 127.068 0.000182568 127.828Z" fill="#E2E2E2"/>
<path d="M0.000182568 145.76C0.000182535 146.521 0.61848 147.137 1.38119 147.137C2.1439 147.137 2.76221 146.521 2.76221 145.76C2.76221 144.999 2.1439 144.383 1.38119 144.383C0.61848 144.383 0.000182602 144.999 0.000182568 145.76Z" fill="#E2E2E2"/>
<path d="M0.000182568 163.691C0.000182535 164.452 0.61848 165.069 1.38119 165.069C2.1439 165.069 2.76221 164.452 2.76221 163.691C2.76221 162.931 2.1439 162.314 1.38119 162.314C0.61848 162.314 0.000182602 162.931 0.000182568 163.691Z" fill="#E2E2E2"/>
<path d="M0.000182568 181.623C0.000182535 182.383 0.61848 183 1.38119 183C2.1439 183 2.76221 182.383 2.76221 181.623C2.76221 180.862 2.1439 180.245 1.38119 180.245C0.61848 180.245 0.000182602 180.862 0.000182568 181.623Z" fill="#E2E2E2"/>
</svg>
