<svg width="40" height="40" viewBox="0 0 40 40" fill="none" xmlns="http://www.w3.org/2000/svg">
<path d="M27.494 -0.000366211C35.216 -0.000366211 40 4.78563 40 12.5116V27.5116C40 35.2156 35.216 39.9996 27.494 39.9996H12.488C4.78401 39.9996 4.3558e-06 35.2156 0.00200873 27.5056C0.00200873 26.6616 0.688009 25.9756 1.53201 25.9756C2.37801 25.9756 3.06201 26.6616 3.06201 27.5056C3.06201 33.5736 6.40401 36.9336 12.508 36.9336H27.494C33.58 36.9336 36.94 33.5916 36.94 27.5056V12.5056C36.94 6.41963 33.6 3.05963 27.494 3.05963H12.506C6.42001 3.05963 3.06001 6.41963 3.06001 12.5056V17.1676C3.06001 18.0036 2.38401 18.6796 1.54801 18.6796H1.52601C0.682009 18.6796 -0.00199127 17.9936 4.35571e-06 17.1496V12.5056C4.35571e-06 4.78563 4.82001 -0.000366211 12.508 -0.000366211H27.494Z" fill="black"/>
<path d="M14.8204 23.54L9.00037 21.48L14.8204 19.44V16.32L5.60037 20.06V22.9L14.8204 26.66V23.54ZM15.6301 28H18.9301L24.1301 15.18H20.8301L15.6301 28ZM24.9363 23.54V26.66L34.1563 22.9V20.06L24.9363 16.32V19.44L30.7563 21.48L24.9363 23.54Z" fill="black"/>
</svg>
