<svg width="110" height="81" viewBox="0 0 110 81" fill="none" xmlns="http://www.w3.org/2000/svg">
<g clip-path="url(#clip0)">
<path d="M8.46154 50.8337L13.3451 63.5097C13.474 63.8825 13.6835 64.2067 13.9575 64.4985C14.1187 64.6606 14.3121 64.774 14.5377 64.8065V65.2117C14.0542 65.1793 13.4901 65.1631 12.8454 65.1631C12.2007 65.1631 11.5399 65.1469 10.863 65.1469C10.1861 65.1469 9.52528 65.1469 8.92894 65.1631C8.3326 65.1793 7.83297 65.1955 7.47839 65.2117V64.8065C8.17143 64.774 8.6066 64.6606 8.78389 64.4498C8.96117 64.2391 8.92894 63.7852 8.65495 63.1044L5.41539 54.108L5.81832 53.3948L3.03004 60.6892C2.57876 61.8563 2.36923 62.7316 2.36923 63.3152C2.36923 63.8987 2.54652 64.2877 2.88499 64.4823C3.28792 64.693 3.7392 64.8065 4.19048 64.8227V65.2279C3.69085 65.1955 3.23956 65.1793 2.85275 65.1793C2.44982 65.1793 2.01466 65.1631 1.54726 65.1631C1.28938 65.1631 1.01539 65.1631 0.725279 65.1793C0.48352 65.1793 0.225645 65.1955 -0.0161133 65.2279V64.8227C0.290114 64.774 0.596341 64.5633 0.902568 64.2229C1.2088 63.8825 1.51502 63.2827 1.83737 62.4398L6.31795 50.8337C6.6403 50.8661 6.99487 50.8661 7.38169 50.8661C7.7685 50.8661 8.1392 50.8661 8.46154 50.8337ZM9.1707 59.3762V59.7814H3.14286L3.33627 59.3762H9.1707Z" fill="white"/>
<path d="M26.5934 50.8337V51.2389C26.2872 51.2389 25.9648 51.2876 25.6747 51.3848C25.4652 51.4659 25.3201 51.6442 25.2557 51.8711C25.1751 52.2277 25.1428 52.6005 25.159 52.9734V63.0558C25.1428 63.4286 25.1912 63.8015 25.2718 64.1581C25.3201 64.3688 25.4813 64.5633 25.6908 64.6444C25.9809 64.7416 26.2872 64.7902 26.5934 64.8065V65.2117C26.2066 65.1793 25.7069 65.1631 25.0945 65.1631C24.482 65.1631 23.8535 65.1631 23.2088 65.1631C22.4835 65.1631 21.8066 65.1631 21.1619 65.1793C20.5172 65.1955 20.0014 65.1955 19.6146 65.2279V64.8227C19.937 64.8065 20.2432 64.7578 20.5494 64.6606C20.7589 64.5795 20.904 64.385 20.9524 64.1743C21.0329 63.8177 21.0652 63.4448 21.0491 63.072V52.9896C21.0652 52.6167 21.0329 52.2439 20.9524 51.8873C20.904 51.6766 20.7428 51.4821 20.5333 51.401C20.2432 51.3038 19.9209 51.2389 19.6146 51.2551V50.8499C20.0014 50.8661 20.5172 50.8823 21.1619 50.8823C21.8066 50.8823 22.4835 50.8985 23.2088 50.8985C23.8373 50.8985 24.4659 50.8985 25.0784 50.8823C25.6908 50.8661 26.2066 50.8499 26.5934 50.8337Z" fill="white"/>
<path d="M31.6542 50.8337C32.0411 50.8499 32.5568 50.8661 33.2015 50.8661C33.8462 50.8661 34.4909 50.8823 35.1356 50.8823C35.8125 50.8823 36.4572 50.8823 37.0696 50.8661C37.6821 50.8499 38.1172 50.8499 38.3751 50.8499C40.422 50.8499 41.9532 51.1417 42.9524 51.709C43.9517 52.2763 44.4513 53.1679 44.4513 54.3836C44.4513 54.8861 44.3546 55.3886 44.1451 55.8425C43.9195 56.3612 43.5649 56.7989 43.1136 57.1393C42.5173 57.5769 41.8403 57.8849 41.1151 58.047C40.0674 58.2902 38.9876 58.4036 37.9077 58.3874H35.9737V57.9822H37.7143C38.4074 57.9822 38.9231 57.8363 39.2777 57.5283C39.6484 57.2041 39.8901 56.7827 40.003 56.3126C40.1319 55.7614 40.1964 55.1941 40.1964 54.6105C40.1964 53.5407 40.0513 52.714 39.7612 52.1142C39.4711 51.5307 38.9715 51.2389 38.2623 51.2227C37.811 51.2227 37.5048 51.3362 37.3759 51.5631C37.2469 51.7901 37.1663 52.2601 37.1663 52.9572V63.0396C37.1502 63.4124 37.1986 63.7853 37.2792 64.1419C37.3275 64.3526 37.4887 64.5471 37.6982 64.6282C37.9883 64.7254 38.2945 64.7741 38.6008 64.7903V65.1955C38.214 65.1631 37.7143 65.1469 37.1019 65.1469C36.4894 65.1469 35.8608 65.1307 35.2323 65.1307C34.507 65.1307 33.8301 65.1307 33.1854 65.1469C32.5407 65.1631 32.0249 65.1631 31.6381 65.1955V64.7903C31.9605 64.7741 32.2667 64.7254 32.5729 64.6282C32.7824 64.5471 32.9275 64.3526 32.9759 64.1419C33.0564 63.7853 33.0887 63.4124 33.0726 63.0396V52.9572C33.0887 52.5843 33.0564 52.2115 32.9759 51.8549C32.9275 51.628 32.7663 51.4496 32.5568 51.3686C32.2667 51.2713 31.9443 51.2065 31.6381 51.2227L31.6542 50.8337ZM35.877 58.047C36.3605 58.0632 36.8279 58.0794 37.2469 58.1281L38.4396 58.2415C38.8103 58.2739 39.1165 58.2902 39.3744 58.3064C40.8088 58.3712 41.8887 58.6306 42.614 59.0682C43.3231 59.4735 43.8066 60.1705 43.9356 60.981L44.3546 63.0882C44.4191 63.4611 44.5319 63.8015 44.7253 64.1257C44.8543 64.304 45.0477 64.4174 45.2733 64.4174C45.3861 64.4174 45.5151 64.4012 45.6118 64.3526C45.7246 64.304 45.8213 64.2391 45.9019 64.1419L46.1597 64.4012C45.7891 64.7903 45.3217 65.0982 44.7898 65.2603C44.2418 65.4224 43.6938 65.5035 43.1297 65.4873C42.2594 65.4873 41.5502 65.3252 41.0022 65.001C40.4542 64.6768 40.1319 64.1095 40.0191 63.2828L39.7129 61.2565C39.6484 60.754 39.5356 60.2677 39.4066 59.7652C39.3099 59.3924 39.1488 59.052 38.9231 58.744C38.7297 58.5009 38.4074 58.355 38.1011 58.3712H35.9092L35.877 58.047Z" fill="white"/>
<path d="M74.6549 50.8337V51.2389C74.3487 51.2389 74.0264 51.2876 73.7362 51.3848C73.5267 51.4659 73.3817 51.6442 73.3172 51.8711C73.2366 52.2277 73.2044 52.6005 73.2205 52.9734V63.0558C73.2044 63.4286 73.2527 63.8015 73.3333 64.1581C73.3817 64.3688 73.5428 64.5633 73.7524 64.6444C74.0425 64.7416 74.3487 64.7902 74.671 64.8065V65.2117C74.252 65.1793 73.7201 65.1631 73.0754 65.1631C72.4307 65.1631 71.7699 65.1469 71.093 65.1469C70.3677 65.1469 69.6908 65.1469 69.0461 65.1631C68.4014 65.1793 67.8857 65.1793 67.4989 65.2117V64.8065C67.8535 64.7902 68.208 64.7416 68.5465 64.6444C68.7721 64.5795 68.9655 64.385 69.03 64.1581C69.1267 63.8015 69.159 63.4286 69.159 63.0558V52.1953L69.3685 52.1629L64.2754 65.2117H63.9531L58.2476 52.1629V61.2403C58.2315 61.9373 58.2798 62.6344 58.3604 63.3152C58.441 63.8015 58.6183 64.1419 58.9084 64.3526C59.1985 64.5633 59.6659 64.7092 60.2945 64.8065V65.2117C60.0205 65.1793 59.682 65.1631 59.2469 65.1631C58.8117 65.1631 58.4088 65.1469 58.0381 65.1469C57.748 65.1469 57.4417 65.1469 57.1355 65.1631C56.8776 65.1631 56.6198 65.1793 56.3619 65.2117V64.8065C56.7003 64.7416 57.0227 64.5957 57.2967 64.3688C57.5062 64.1743 57.6351 63.8501 57.6996 63.4286C57.7802 62.8451 57.8124 62.2453 57.7963 61.6456V52.9734C57.8124 52.6005 57.7802 52.2277 57.6996 51.8711C57.6513 51.6442 57.4901 51.4659 57.2806 51.3848C56.9904 51.2876 56.6681 51.2227 56.3619 51.2389V50.8337C56.5553 50.8499 56.8132 50.8661 57.1355 50.8661C57.4578 50.8661 57.748 50.8823 58.0381 50.8823C58.8117 50.8823 59.5692 50.8823 60.2784 50.8661L62.2124 50.8337L66.2095 59.8949L65.597 60.5595L69.304 50.8985H71.0608C71.7377 50.8985 72.3985 50.8985 73.0432 50.8823C73.6879 50.8661 74.2198 50.8499 74.6549 50.8337Z" fill="white"/>
<path d="M88.1612 50.8337L93.0447 63.5097C93.1736 63.8825 93.3831 64.2067 93.6571 64.4985C93.8183 64.6606 94.0117 64.774 94.2374 64.8227V65.2279C93.7538 65.1955 93.1897 65.1793 92.545 65.1793C91.9004 65.1793 91.2396 65.1631 90.5626 65.1631C89.8696 65.1631 89.2249 65.1631 88.6286 65.1793C88.0322 65.1793 87.5487 65.1955 87.178 65.2279V64.8227C87.8711 64.7903 88.3062 64.6768 88.4835 64.4661C88.6608 64.2553 88.6286 63.8015 88.3546 63.1207L85.115 54.1243L85.5179 53.411L82.7297 60.7054C82.2784 61.8725 82.0527 62.7478 82.0527 63.3314C82.0527 63.9149 82.23 64.304 82.5685 64.4985C82.9714 64.7092 83.4227 64.8227 83.8901 64.8389V65.2441C83.3905 65.2117 82.9392 65.1955 82.5524 65.1955C82.1494 65.1955 81.7143 65.1793 81.2469 65.1793C80.989 65.1793 80.715 65.1793 80.4249 65.1955C80.1831 65.1955 79.9253 65.2117 79.6835 65.2441V64.8389C79.9897 64.7903 80.296 64.5795 80.6022 64.2391C80.9084 63.8987 81.2146 63.299 81.537 62.4561L86.0176 50.8499C86.3399 50.8823 86.6945 50.8823 87.0813 50.8823C87.4681 50.8823 87.8388 50.8661 88.1612 50.8337ZM88.8703 59.3762V59.7814H82.8425L83.052 59.3762H88.8703Z" fill="white"/>
<path d="M104.44 50.5581C105.31 50.5581 106.003 50.6392 106.486 50.8175C106.905 50.9634 107.325 51.1579 107.727 51.3686C107.889 51.4659 108.018 51.5307 108.13 51.5794C108.227 51.628 108.324 51.6442 108.421 51.6442C108.63 51.6442 108.775 51.3524 108.872 50.7527H109.339C109.323 51.0444 109.307 51.3686 109.291 51.7577C109.275 52.1467 109.259 52.633 109.259 53.2652C109.259 53.8973 109.242 54.7078 109.242 55.729H108.775C108.727 54.9834 108.549 54.2539 108.259 53.5569C108.001 52.8923 107.582 52.2926 107.067 51.8063C106.567 51.3524 105.922 51.1093 105.262 51.1093C104.73 51.0931 104.198 51.2552 103.779 51.5956C103.392 51.9198 103.199 52.3898 103.199 53.0058C103.182 53.4597 103.311 53.9135 103.569 54.3026C103.892 54.7402 104.278 55.1293 104.714 55.4373C105.229 55.8263 105.922 56.3288 106.76 56.9286C107.373 57.35 107.921 57.7715 108.404 58.1929C108.872 58.5982 109.275 59.0682 109.581 59.6194C109.887 60.2029 110.048 60.8675 110.032 61.5321C110.032 62.4399 109.774 63.1855 109.275 63.7853C108.743 64.4012 108.034 64.8713 107.26 65.1145C106.39 65.4062 105.455 65.5683 104.536 65.5521C103.795 65.5683 103.053 65.4873 102.344 65.309C101.877 65.1793 101.41 65.001 100.958 64.8065C100.765 64.6606 100.523 64.5633 100.265 64.5147C100.056 64.5147 99.8945 64.8065 99.8139 65.4062H99.3465C99.3788 65.0496 99.3949 64.6444 99.3949 64.1743C99.3949 63.7042 99.411 63.1045 99.411 62.3588C99.411 61.6132 99.4271 60.6568 99.4271 59.5059H99.8945C99.9429 60.4136 100.088 61.3052 100.346 62.1643C100.555 62.9261 100.942 63.6069 101.49 64.1581C102.006 64.6606 102.699 64.9199 103.553 64.9199C104.295 64.9199 104.891 64.7416 105.326 64.385C105.761 64.0284 106.003 63.4935 105.987 62.9261C106.003 62.1319 105.713 61.37 105.165 60.8189C104.52 60.1705 103.811 59.5869 103.053 59.0844C102.425 58.6468 101.829 58.2253 101.281 57.7877C100.749 57.3824 100.314 56.8961 99.959 56.3288C99.6205 55.7452 99.4432 55.0806 99.4593 54.3998C99.4593 53.5083 99.7011 52.7789 100.169 52.2115C100.668 51.628 101.313 51.2065 102.022 50.9634C102.779 50.6878 103.601 50.5581 104.44 50.5581Z" fill="white"/>
<path d="M16.9069 78.5847H14.7795V80.8055H13.3611V73.2355C14.5377 73.2355 15.7304 73.2193 16.9069 73.2193C20.5817 73.2355 20.5978 78.5847 16.9069 78.5847ZM14.7795 77.2718H16.9069C18.7282 77.2718 18.7121 74.5972 16.9069 74.5972H14.7795V77.2718Z" fill="white"/>
<path d="M31.4447 80.8055H25.8198V73.2355H31.4447V74.6134H27.222V76.3478H31.2996V77.677H27.222V79.379H31.4447V80.8055Z" fill="white"/>
<path d="M44.7253 80.8055H43.033L40.8411 78.2768H39.4711V80.8055H38.0528V73.2355C39.2455 73.2355 40.4381 73.2517 41.6308 73.2517C43.4037 73.268 44.3385 74.4513 44.3385 75.7643C44.3385 76.8017 43.8711 77.8553 42.4367 78.1471L44.7092 80.7244L44.7253 80.8055ZM39.4711 74.5809V76.9962H41.6308C42.5334 76.9962 42.9202 76.3964 42.9202 75.7805C42.9202 75.1645 42.5173 74.5647 41.6308 74.5647L39.4711 74.5809Z" fill="white"/>
<path d="M56.7971 73.2842L53.4608 76.8989L57.0872 80.7082V80.7893H55.3304L52.1875 77.4339V80.7893H50.7692V73.2193H52.1875V76.4126L55.0403 73.2193H56.7971V73.2842Z" fill="white"/>
<path d="M68.8366 79.379H64.904L64.2593 80.8055H62.7282L66.0967 73.2355H67.644L71.0125 80.8055H69.4652L68.8366 79.379ZM66.8703 74.8403L65.4681 78.066H68.2564L66.8703 74.8403Z" fill="white"/>
<path d="M81.4725 75.0672C81.2147 74.6296 80.5055 74.2243 79.6835 74.2243C78.6359 74.2243 78.1201 74.662 78.1201 75.2293C78.1201 75.8939 78.8938 76.0722 79.7963 76.1857C81.3597 76.3802 82.8264 76.7855 82.8264 78.601C82.8264 80.2868 81.3436 81.0162 79.6674 81.0162C78.1363 81.0162 76.9436 80.5461 76.3956 79.1521L77.5722 78.5361C77.9106 79.3628 78.7809 79.7356 79.6835 79.7356C80.5861 79.7356 81.4081 79.4277 81.4081 78.601C81.4081 77.8877 80.6667 77.596 79.6674 77.4825C78.1363 77.3042 76.7179 76.8827 76.7179 75.1969C76.7179 73.6408 78.2491 73.0086 79.6352 72.9924C80.8117 72.9924 82.0205 73.3328 82.5846 74.4999L81.4725 75.0672Z" fill="white"/>
<path d="M94.4469 79.379H90.5143L89.8696 80.8055H88.3223L91.6908 73.2355H93.2381L96.6066 80.8055H95.0593L94.4469 79.379ZM92.4806 74.8403L91.0784 78.066H93.8667L92.4806 74.8403Z" fill="white"/>
<path d="M64.8557 0.0161841L61.0036 -2.56244e-05V32.0142H56.8615V-2.56244e-05H44.9831V31.9169C43.5648 31.7224 42.1948 31.301 40.9055 30.685V7.89411H18.293C17.6967 6.61354 17.2937 5.25193 17.1003 3.85789H40.8893V-2.56244e-05H13.1194V1.92893C13.1194 2.49627 13.1516 3.07982 13.2 3.64716C14.0058 12.1573 20.6784 18.9167 29.1399 19.792C30.0102 28.3022 36.7311 35.013 45.1926 35.8235C45.7567 35.8721 46.337 35.9045 46.9011 35.9045H48.819V3.8741H53.0095V35.9045H56.8454V35.8721H60.9875V35.9045H62.9055C63.4696 35.9045 64.0498 35.8721 64.6139 35.8235L64.8395 35.8073V3.8741H92.8835C92.6901 5.26814 92.2872 6.62975 91.6908 7.91032H69.0945V34.8671L69.4168 34.7374C75.7187 32.306 80.1187 26.5353 80.8439 19.792C89.3055 18.9167 95.978 12.1573 96.7839 3.64716C96.8322 3.07982 96.8644 2.49627 96.8644 1.92893V-0.0162354H64.8557V0.0161841ZM30.9773 16.0314C27.2058 16.0314 23.5956 14.4915 20.9685 11.7844H37.0696V27.978C34.4102 25.3358 32.9274 21.7372 32.9113 17.9766V16.0314H30.9773ZM89.0315 11.7844C86.3883 14.4915 82.778 16.0314 79.0066 16.0314H77.0886V17.9766C77.0886 21.7372 75.5897 25.3358 72.9304 27.978V11.7844H89.0315Z" fill="#E6CC44"/>
</g>
<defs>
<clipPath id="clip0">
<rect width="110" height="81" fill="white"/>
</clipPath>
</defs>
</svg>
