<svg width="61" height="60" viewBox="0 0 61 60" fill="none" xmlns="http://www.w3.org/2000/svg">
<path d="M41.1935 18.8142C41.0028 18.267 40.6451 17.7923 40.1699 17.4563C39.6948 17.1202 39.126 16.9394 38.5426 16.939H37.6025V15.0732H38.5426C39.2898 15.0709 40.0059 14.7754 40.5343 14.251C41.0627 13.7266 41.3605 13.016 41.3628 12.2744V4.81096C41.3605 4.06936 41.0627 3.35876 40.5343 2.83437C40.0059 2.30997 39.2898 2.01439 38.5426 2.01218H4.70009C3.95281 2.01439 3.23678 2.30997 2.70837 2.83437C2.17996 3.35876 1.88211 4.06936 1.87988 4.81096V12.2744C1.88211 13.016 2.17996 13.7266 2.70837 14.251C3.23678 14.7754 3.95281 15.0709 4.70009 15.0732H5.64016V16.939H4.70009C3.95281 16.9412 3.23678 17.2368 2.70837 17.7612C2.17996 18.2856 1.88211 18.9962 1.87988 19.7378V27.2012C1.88211 27.9428 2.17996 28.6534 2.70837 29.1778C3.23678 29.7022 3.95281 29.9978 4.70009 30H5.64016V31.8658H4.70009C3.95281 31.868 3.23678 32.1636 2.70837 32.688C2.17996 33.2124 1.88211 33.923 1.87988 34.6646V42.128C1.88211 42.8696 2.17996 43.5802 2.70837 44.1046C3.23678 44.629 3.95281 44.9246 4.70009 44.9268H22.5614V52.3902C22.5614 56.066 31.5484 57.9878 40.4227 57.9878C49.2969 57.9878 58.284 56.066 58.284 52.3902V24.4024C58.284 20.8293 49.814 18.9261 41.1935 18.8142ZM4.70009 13.2073C4.45077 13.2073 4.21166 13.109 4.03536 12.9341C3.85906 12.7591 3.76002 12.5218 3.76002 12.2744V4.81096C3.76002 4.56353 3.85906 4.32624 4.03536 4.15128C4.21166 3.97632 4.45077 3.87803 4.70009 3.87803H38.5426C38.7919 3.87803 39.031 3.97632 39.2073 4.15128C39.3836 4.32624 39.4826 4.56353 39.4826 4.81096V12.2744C39.4826 12.5218 39.3836 12.7591 39.2073 12.9341C39.031 13.109 38.7919 13.2073 38.5426 13.2073H4.70009ZM35.7223 15.0732V16.939H31.9621V15.0732H35.7223ZM30.0819 15.0732V16.939H13.1607V15.0732H30.0819ZM11.2806 15.0732V16.939H7.52029V15.0732H11.2806ZM22.5614 43.061H4.70009C4.45077 43.061 4.21166 42.9627 4.03536 42.7877C3.85906 42.6128 3.76002 42.3755 3.76002 42.128V34.6646C3.76002 34.4172 3.85906 34.1799 4.03536 34.0049C4.21166 33.83 4.45077 33.7317 4.70009 33.7317H22.5614V43.061ZM7.52029 31.8658V30H11.2806V31.8658H7.52029ZM22.5614 31.8658H13.1607V30H22.5614V31.8658ZM22.5614 24.4024V28.1341H4.70009C4.45077 28.1341 4.21166 28.0358 4.03536 27.8609C3.85906 27.6859 3.76002 27.4486 3.76002 27.2012V19.7378C3.76002 19.4904 3.85906 19.2531 4.03536 19.0781C4.21166 18.9031 4.45077 18.8049 4.70009 18.8049H38.5426C38.5873 18.8097 38.6314 18.8191 38.6742 18.8328C30.4016 19.0661 22.5614 20.9692 22.5614 24.4024ZM56.4039 52.3902C56.4039 53.659 50.7634 56.1219 40.4227 56.1219C30.0819 56.1219 24.4415 53.659 24.4415 52.3902V45.6918C27.5343 47.6416 33.9926 48.6585 40.4227 48.6585C46.8528 48.6585 53.311 47.6416 56.4039 45.6918V52.3902ZM56.4039 43.061C56.4039 44.3297 50.7634 46.7927 40.4227 46.7927C30.0819 46.7927 24.4415 44.3297 24.4415 43.061V36.3625C27.5343 38.3124 33.9926 39.3293 40.4227 39.3293C46.8528 39.3293 53.311 38.3124 56.4039 36.3625V43.061ZM56.4039 33.7317C56.4039 35.0005 50.7634 37.4634 40.4227 37.4634C30.0819 37.4634 24.4415 35.0005 24.4415 33.7317V27.0333C27.5343 28.9831 33.9926 30 40.4227 30C46.8528 30 53.311 28.9831 56.4039 27.0333V33.7317ZM40.4227 28.1341C30.0819 28.1341 24.4415 25.6712 24.4415 24.4024C24.4415 23.1336 30.0819 20.6707 40.4227 20.6707C50.7634 20.6707 56.4039 23.1336 56.4039 24.4024C56.4039 25.6712 50.7634 28.1341 40.4227 28.1341Z" fill="black"/>
<path d="M39.4824 32.7988H41.3626V34.6646H39.4824V32.7988Z" fill="black"/>
<path d="M39.4824 43.0609H41.3626V44.9268H39.4824V43.0609Z" fill="black"/>
<path d="M39.4824 51.4573H41.3626V53.3232H39.4824V51.4573Z" fill="black"/>
<path d="M10.341 20.6707H6.58069C6.33137 20.6707 6.09226 20.769 5.91596 20.944C5.73967 21.1189 5.64062 21.3562 5.64062 21.6036V25.3353C5.64062 25.5828 5.73967 25.8201 5.91596 25.995C6.09226 26.17 6.33137 26.2683 6.58069 26.2683H10.341C10.5903 26.2683 10.8294 26.17 11.0057 25.995C11.182 25.8201 11.281 25.5828 11.281 25.3353V21.6036C11.281 21.3562 11.182 21.1189 11.0057 20.944C10.8294 20.769 10.5903 20.6707 10.341 20.6707ZM9.4009 24.4024H7.52076V22.5366H9.4009V24.4024Z" fill="black"/>
<path d="M17.8615 20.6707H14.1012C13.8519 20.6707 13.6128 20.769 13.4365 20.944C13.2602 21.1189 13.1611 21.3562 13.1611 21.6036V25.3353C13.1611 25.5828 13.2602 25.8201 13.4365 25.995C13.6128 26.17 13.8519 26.2683 14.1012 26.2683H17.8615C18.1108 26.2683 18.3499 26.17 18.5262 25.995C18.7025 25.8201 18.8015 25.5828 18.8015 25.3353V21.6036C18.8015 21.3562 18.7025 21.1189 18.5262 20.944C18.3499 20.769 18.1108 20.6707 17.8615 20.6707ZM16.9214 24.4024H15.0413V22.5366H16.9214V24.4024Z" fill="black"/>
<path d="M10.341 5.7439H6.58069C6.33137 5.7439 6.09226 5.84219 5.91596 6.01714C5.73967 6.1921 5.64062 6.4294 5.64062 6.67682V10.4085C5.64062 10.656 5.73967 10.8933 5.91596 11.0682C6.09226 11.2432 6.33137 11.3415 6.58069 11.3415H10.341C10.5903 11.3415 10.8294 11.2432 11.0057 11.0682C11.182 10.8933 11.281 10.656 11.281 10.4085V6.67682C11.281 6.4294 11.182 6.1921 11.0057 6.01714C10.8294 5.84219 10.5903 5.7439 10.341 5.7439ZM9.4009 9.4756H7.52076V7.60975H9.4009V9.4756Z" fill="black"/>
<path d="M17.8615 5.7439H14.1012C13.8519 5.7439 13.6128 5.84219 13.4365 6.01714C13.2602 6.1921 13.1611 6.4294 13.1611 6.67682V10.4085C13.1611 10.656 13.2602 10.8933 13.4365 11.0682C13.6128 11.2432 13.8519 11.3415 14.1012 11.3415H17.8615C18.1108 11.3415 18.3499 11.2432 18.5262 11.0682C18.7025 10.8933 18.8015 10.656 18.8015 10.4085V6.67682C18.8015 6.4294 18.7025 6.1921 18.5262 6.01714C18.3499 5.84219 18.1108 5.7439 17.8615 5.7439ZM16.9214 9.4756H15.0413V7.60975H16.9214V9.4756Z" fill="black"/>
<path d="M20.6816 5.7439H33.8426V7.60975H20.6816V5.7439Z" fill="black"/>
<path d="M35.7227 5.7439H37.6028V7.60975H35.7227V5.7439Z" fill="black"/>
<path d="M20.6816 9.47559H33.8426V11.3414H20.6816V9.47559Z" fill="black"/>
<path d="M35.7227 9.47559H37.6028V11.3414H35.7227V9.47559Z" fill="black"/>
<path d="M10.341 35.5975H6.58069C6.33137 35.5975 6.09226 35.6958 5.91596 35.8708C5.73967 36.0457 5.64062 36.283 5.64062 36.5305V40.2622C5.64062 40.5096 5.73967 40.7469 5.91596 40.9218C6.09226 41.0968 6.33137 41.1951 6.58069 41.1951H10.341C10.5903 41.1951 10.8294 41.0968 11.0057 40.9218C11.182 40.7469 11.281 40.5096 11.281 40.2622V36.5305C11.281 36.283 11.182 36.0457 11.0057 35.8708C10.8294 35.6958 10.5903 35.5975 10.341 35.5975ZM9.4009 39.3292H7.52076V37.4634H9.4009V39.3292Z" fill="black"/>
<path d="M17.8615 35.5975H14.1012C13.8519 35.5975 13.6128 35.6958 13.4365 35.8708C13.2602 36.0457 13.1611 36.283 13.1611 36.5305V40.2622C13.1611 40.5096 13.2602 40.7469 13.4365 40.9218C13.6128 41.0968 13.8519 41.1951 14.1012 41.1951H17.8615C18.1108 41.1951 18.3499 41.0968 18.5262 40.9218C18.7025 40.7469 18.8015 40.5096 18.8015 40.2622V36.5305C18.8015 36.283 18.7025 36.0457 18.5262 35.8708C18.3499 35.6958 18.1108 35.5975 17.8615 35.5975ZM16.9214 39.3292H15.0413V37.4634H16.9214V39.3292Z" fill="black"/>
</svg>
