<svg width="61" height="68" viewBox="0 0 61 68" fill="none" xmlns="http://www.w3.org/2000/svg">
<g clip-path="url(#clip0)">
<path d="M4.05607 38.9936C2.72587 37.6731 1.80132 36.0046 1.39021 34.1825C0.979093 32.3605 1.09836 30.46 1.7341 28.7027C2.36984 26.9453 3.49586 25.4035 4.98088 24.257C6.46589 23.1106 8.24871 22.4066 10.1215 22.2273C10.2677 20.5707 10.7961 18.9697 11.6658 17.5483C12.5355 16.1268 13.7232 14.923 15.1368 14.0302C16.5505 13.1373 18.1523 12.5792 19.8181 12.3992C21.484 12.2192 23.1692 12.422 24.7434 12.9921C26.4845 9.64854 29.3738 7.03371 32.8887 5.62047C36.4035 4.20724 40.312 4.08889 43.9072 5.28685C47.5023 6.48481 50.5468 8.91998 52.4901 12.1519C54.4333 15.3839 55.147 19.1993 54.5021 22.9081C56.1631 23.5844 57.6109 24.6905 58.6945 26.1112C59.8029 27.5737 60.4787 29.3137 60.6462 31.1361C60.8137 32.9585 60.4662 34.7912 59.6426 36.4285C58.8191 38.0658 57.5522 39.443 55.9839 40.4056C54.4157 41.3681 52.6082 41.878 50.7642 41.878H49.7719V39.9085H50.7642C52.6674 39.9082 54.5071 39.2294 55.9483 37.9958C57.3894 36.7622 58.3361 35.0558 58.6157 33.1876C58.8954 31.3194 58.4896 29.4136 57.4721 27.8175C56.4546 26.2214 54.8932 25.0411 53.0723 24.4917C52.8316 24.4192 52.6276 24.2587 52.5015 24.0426C52.3755 23.8266 52.3369 23.5711 52.3935 23.3278C53.1742 19.9822 52.669 16.4678 50.9767 13.4724C49.2843 10.4769 46.5266 8.21592 43.2431 7.13175C39.9596 6.04759 36.3866 6.21829 33.2233 7.61045C30.0599 9.00262 27.5338 11.5161 26.1392 14.659C26.0858 14.7794 26.0085 14.8879 25.9121 14.9781C25.8157 15.0684 25.7021 15.1385 25.5779 15.1845C25.4537 15.2305 25.3215 15.2513 25.1891 15.2457C25.0567 15.2401 24.9267 15.2082 24.8069 15.152C23.6159 14.5913 22.3136 14.3018 20.9954 14.3049C18.6277 14.3075 16.3577 15.2421 14.6834 16.9036C13.0092 18.5652 12.0674 20.8179 12.0648 23.1677C12.0648 23.4288 11.9602 23.6793 11.7741 23.864C11.588 24.0487 11.3356 24.1524 11.0725 24.1524C8.96708 24.1524 6.94793 24.9824 5.4592 26.4598C3.97047 27.9373 3.1341 29.9411 3.1341 32.0305C3.1341 34.1199 3.97047 36.1237 5.4592 37.6011C6.94793 39.0785 8.96708 39.9085 11.0725 39.9085H12.0648V41.878H11.0725C9.76885 41.8815 8.4775 41.6284 7.27313 41.1332C6.06877 40.6381 4.97532 39.9109 4.05607 38.9936ZM37.7742 8.44556C37.0416 8.51209 36.3167 8.64576 35.6089 8.84488L36.1507 10.7396C36.7404 10.5738 37.3442 10.4625 37.9546 10.4072L37.7742 8.44556ZM34.7244 11.261L33.8973 9.47069C31.9798 10.3432 30.3296 11.7044 29.1146 13.4158L30.7375 14.5493C31.7504 13.1229 33.126 11.9883 34.7244 11.261ZM45.8028 55.6646V52.989C45.0594 53.8298 44.1437 54.5033 43.117 54.9647C42.0902 55.4262 40.9761 55.6648 39.849 55.6646H21.9877C20.8606 55.6648 19.7465 55.4262 18.7197 54.9647C17.693 54.5033 16.7773 53.8298 16.0339 52.989V55.6646C16.0357 57.2311 16.6636 58.7329 17.7797 59.8406C18.8959 60.9483 20.4092 61.5714 21.9877 61.5732H39.849C40.9752 61.5697 42.0777 61.251 43.0296 60.6537C43.9815 60.0563 44.7443 59.2046 45.2303 58.1963L47.0229 59.0415C46.3749 60.3855 45.358 61.5209 44.089 62.3171C42.82 63.1133 41.3504 63.5381 39.849 63.5427H21.9877C19.883 63.5403 17.8653 62.7096 16.377 61.2326C14.8888 59.7557 14.0517 57.7533 14.0493 55.6646V32.0305C14.0446 29.968 14.8596 27.9868 16.3175 26.5169L17.735 27.8956C16.9146 28.7267 16.3596 29.7796 16.1398 30.9224C15.9199 32.0651 16.0449 33.2469 16.4991 34.3195C16.9532 35.392 17.7164 36.3077 18.6928 36.9516C19.6692 37.5955 20.8154 37.939 21.9877 37.939H39.849C41.428 37.939 42.9424 37.3165 44.0589 36.2084C45.1755 35.1004 45.8028 33.5975 45.8028 32.0305C45.8028 30.4634 45.1755 28.9606 44.0589 27.8525C42.9424 26.7444 41.428 26.1219 39.849 26.1219H21.9877C20.9069 26.1211 19.8464 26.4127 18.9201 26.9654L17.8958 25.279C19.1312 24.5411 20.5459 24.1516 21.9877 24.1524H39.849C41.9537 24.1548 43.9714 24.9855 45.4597 26.4624C46.9479 27.9394 47.785 29.9418 47.7874 32.0305V55.6646C47.7873 56.0407 47.7605 56.4164 47.7071 56.7887L45.7425 56.51C45.7826 56.23 45.8027 55.9475 45.8028 55.6646ZM16.0339 39.9085C16.0357 41.475 16.6636 42.9768 17.7797 44.0845C18.8959 45.1922 20.4092 45.8153 21.9877 45.8171H39.849C41.4275 45.8153 42.9408 45.1922 44.0569 44.0845C45.1731 42.9768 45.801 41.475 45.8028 39.9085V37.2329C45.0594 38.0737 44.1437 38.7472 43.117 39.2086C42.0902 39.6701 40.9761 39.9087 39.849 39.9085H21.9877C20.8606 39.9087 19.7465 39.6701 18.7197 39.2086C17.693 38.7472 16.7773 38.0737 16.0339 37.2329V39.9085ZM45.8028 47.7866V45.111C45.0594 45.9517 44.1437 46.6253 43.117 47.0867C42.0902 47.5481 40.9761 47.7867 39.849 47.7866H21.9877C20.8606 47.7867 19.7465 47.5481 18.7197 47.0867C17.693 46.6253 16.7773 45.9517 16.0339 45.111V47.7866C16.0357 49.3531 16.6636 50.8549 17.7797 51.9626C18.8959 53.0702 20.4092 53.6933 21.9877 53.6951H39.849C41.4275 53.6933 42.9408 53.0702 44.0569 51.9626C45.1731 50.8549 45.801 49.3531 45.8028 47.7866ZM21.9877 30.061V28.0914C21.3526 28.0914 20.7268 28.2426 20.1628 28.5324C19.5988 28.8221 19.1131 29.2419 18.7464 29.7566C18.3798 30.2712 18.143 30.8657 18.0559 31.49C17.9687 32.1143 18.0338 32.7502 18.2456 33.3444L20.1161 32.6861C20.0104 32.389 19.9781 32.0711 20.0219 31.7591C20.0656 31.4471 20.1841 31.1501 20.3674 30.8929C20.5508 30.6357 20.7936 30.426 21.0755 30.2812C21.3575 30.1365 21.6703 30.0609 21.9877 30.061ZM29.9261 41.878H27.9415V43.8475H29.9261V41.878ZM33.8952 41.878H31.9106V43.8475H33.8952V41.878ZM37.8644 41.878H35.8798V43.8475H37.8644V41.878ZM25.9569 41.878H23.9723V43.8475H25.9569V41.878ZM27.9415 51.7256H29.9261V49.7561H27.9415V51.7256ZM31.9106 51.7256H33.8952V49.7561H31.9106V51.7256ZM35.8798 51.7256H37.8644V49.7561H35.8798V51.7256ZM23.9723 51.7256H25.9569V49.7561H23.9723V51.7256ZM29.9261 59.6036V57.6341H27.9415V59.6036H29.9261ZM33.8952 59.6036V57.6341H31.9106V59.6036H33.8952ZM37.8644 59.6036V57.6341H35.8798V59.6036H37.8644ZM25.9569 59.6036V57.6341H23.9723V59.6036H25.9569Z" fill="black"/>
</g>
<defs>
<clipPath id="clip0">
<rect width="61" height="68" fill="white"/>
</clipPath>
</defs>
</svg>
