<svg width="43" height="45" viewBox="0 0 43 45" fill="none" xmlns="http://www.w3.org/2000/svg">
<path d="M13.2595 3.67652C16.1687 0.434585 20.7072 -0.799563 24.8561 0.523074C29.0051 1.84571 31.9936 5.47939 32.4923 9.8077L32.8262 9.81437C36.0721 9.94395 39.7828 11.9833 40.8337 17.7189L42.5336 30.9306C43.1859 35.5191 42.3359 39.0594 40.3593 41.4129C38.3826 43.7665 35.1409 44.9137 30.4761 44.9137H12.4689C8.78394 45.376 5.11231 43.9619 2.6882 41.1467C0.264094 38.3315 -0.590612 34.489 0.411388 30.9108L0.460523 30.6809C0.69434 29.8623 1.50266 29.3221 2.36826 29.4473C3.31255 29.5838 3.96743 30.4604 3.83097 31.4053C3.21323 33.9944 3.75457 36.7244 5.31345 38.8814C7.22877 40.6979 9.81608 41.6302 12.4491 41.4525H30.4761C34.0538 41.4525 36.5246 40.7009 37.8094 39.1385C39.0942 37.576 39.6082 34.9653 39.0942 31.4053L37.4141 18.332C36.8211 15.1675 34.9828 13.1897 32.4923 13.1897H10.433C8.06098 13.1897 6.22271 15.1675 5.49135 18.4705L5.01696 21.3778C4.79909 22.2662 3.93116 22.8342 3.03044 22.6779C2.12972 22.5216 1.5036 21.6944 1.59737 20.7845L2.09153 17.8178C3.39611 11.7855 7.25056 9.8077 10.433 9.8077H28.9738C28.7023 8.05502 27.837 6.44897 26.5228 5.25876C23.4 2.46425 18.6049 2.72982 15.8094 5.8521V6.04988L15.6156 6.22903C15.205 6.55452 14.6646 6.6807 14.1449 6.56132C13.5385 6.42203 13.0525 5.96967 12.8699 5.37464C12.6873 4.7796 12.8358 4.13228 13.2595 3.67652ZM27.9863 18.7278L28.2425 18.7671C28.5004 18.8268 28.7472 18.927 28.9738 19.0638C29.1759 19.2234 29.3555 19.4097 29.5075 19.6176C29.5933 19.7135 29.6543 19.8289 29.6854 19.9538C29.7456 20.0716 29.7857 20.1986 29.804 20.3296C29.8244 20.4607 29.8244 20.5941 29.804 20.7252C29.8107 20.9846 29.7565 21.242 29.6459 21.4767C29.5468 21.7317 29.3834 21.9565 29.1715 22.1294C28.8065 22.502 28.3092 22.7153 27.7878 22.7227C27.524 22.7122 27.2636 22.6588 27.017 22.5645C26.6048 22.3195 26.2957 21.9329 26.1472 21.4767C26.0427 21.2406 25.9953 20.9831 26.0089 20.7252C25.9888 20.5941 25.9888 20.4607 26.0089 20.3296V19.9538L26.2065 19.6176C26.2628 19.5024 26.3438 19.4011 26.4437 19.3209L26.7402 19.0638C26.8504 18.989 26.9701 18.9291 27.096 18.8858C27.2149 18.8285 27.3414 18.7886 27.4716 18.7671C27.7252 18.7081 27.9889 18.7081 28.2425 18.7671L27.9863 18.7278ZM15.3555 18.7475L15.6117 18.7869C15.7427 18.8053 15.8696 18.8454 15.9873 18.9056C16.1087 18.9451 16.2224 19.0053 16.3233 19.0836C16.4418 19.1519 16.5485 19.2387 16.6396 19.3407C16.7395 19.4209 16.8205 19.5222 16.8768 19.6374C16.9536 19.7427 17.0198 19.8553 17.0745 19.9736L17.1931 20.3494C17.2038 20.481 17.2038 20.6133 17.1931 20.7449C17.1931 21.8372 16.3081 22.7227 15.2164 22.7227C14.7088 22.7051 14.2275 22.4926 13.8723 22.1294C13.6853 21.9431 13.5374 21.7211 13.4374 21.4767C13.3429 21.2376 13.2959 20.9823 13.2991 20.7252C13.2787 20.5941 13.2787 20.4607 13.2991 20.3296C13.3174 20.1986 13.3575 20.0716 13.4177 19.9538C13.4572 19.8323 13.5173 19.7186 13.5956 19.6176C13.6518 19.5024 13.7328 19.4011 13.8328 19.3209C13.9193 19.2276 14.0192 19.1476 14.1293 19.0836C14.2302 19.0053 14.3439 18.9451 14.4653 18.9056C14.583 18.8454 14.7099 18.8053 14.8409 18.7869C15.0944 18.7278 15.3582 18.7278 15.6117 18.7869L15.3555 18.7475Z" fill="black"/>
</svg>
