<svg width="44" height="46" viewBox="0 0 44 46" fill="none" xmlns="http://www.w3.org/2000/svg">
<path d="M2.0219 11.8757C2.49495 11.7847 2.98588 11.8803 3.38602 12.1414C4.17646 12.6627 4.40564 13.6941 3.90677 14.4848L3.77589 14.7404C3.28129 15.8654 3.72307 17.1961 4.8441 17.8182C5.75114 18.3572 6.49776 19.1162 7.0104 20.0202C8.60671 22.8641 7.61603 26.4228 4.76078 28.101C3.55352 28.7709 3.13403 30.2627 3.82345 31.4343L5.2607 33.8384C5.58772 34.4113 6.14155 34.83 6.79418 34.9977C7.44681 35.1655 8.14177 35.0678 8.71844 34.7273C9.64826 34.2042 10.7055 33.9322 11.7804 33.9394C15.2316 33.9394 18.0293 36.6528 18.0293 40C18.0408 41.3533 19.1752 42.4445 20.5706 42.4444L20.5497 42.4848C21.1972 42.4848 21.7954 42.8198 22.1191 43.3636C22.4428 43.9074 22.4428 44.5774 22.1191 45.1212C21.7954 45.665 21.1972 46 20.5497 46C17.0985 46 14.3008 43.2866 14.3008 39.9394C14.3064 39.5134 14.1911 39.094 13.9675 38.7273C13.2686 37.5538 11.7241 37.1477 10.5098 37.8182L10.1396 37.9987C7.27508 39.2832 3.83619 38.2902 2.1779 35.6364L0.761474 33.2323C-0.834835 30.3884 0.155845 26.8298 3.01109 25.1515C3.38952 24.9356 3.70496 24.6297 3.92759 24.2626C4.34534 23.6979 4.49547 22.9874 4.34044 22.3088C4.1854 21.6303 3.73985 21.0478 3.11524 20.7071L2.76809 20.4877C0.181928 18.7335 -0.664174 15.3517 0.865623 12.6263L1.04303 12.4074C1.30145 12.1359 1.64347 11.9485 2.0219 11.8757ZM39.3722 17.7144C40.1932 17.4286 41.1277 17.7386 41.5878 18.4848C42.097 19.3165 41.8177 20.3908 40.9629 20.8889C40.5844 21.1048 40.269 21.4107 40.0464 21.7778C39.7069 22.3398 39.6128 23.01 39.7849 23.6396C39.9569 24.2692 40.381 24.8061 40.9629 25.1313C43.9104 26.8449 44.8782 30.5452 43.1292 33.4141L41.7127 35.8182L41.4865 36.1549C39.6779 38.6631 36.191 39.4837 33.3808 38C32.6016 37.5437 31.6283 37.5343 30.8399 37.9755C30.0515 38.4166 29.5726 39.2386 29.5898 40.1212C29.4901 41.0246 28.7041 41.7097 27.7672 41.7097C26.8304 41.7097 26.0444 41.0246 25.9446 40.1212C25.9894 38.0031 27.1713 36.0614 29.0618 35.0001C30.9523 33.9388 33.277 33.9119 35.193 34.9293C35.7687 35.2651 36.4603 35.3598 37.1094 35.1919C37.7573 35.0157 38.3097 34.603 38.6508 34.0404L40.0672 31.6364C40.4057 31.0774 40.4993 30.4103 40.3271 29.784C40.1549 29.1576 39.7312 28.6243 39.1507 28.303C38.1746 27.7262 37.3873 26.8925 36.8802 25.899C35.2839 23.055 36.2746 19.4964 39.1299 17.8182L39.3722 17.7144ZM21.987 15.4141C24.0622 15.4088 26.0544 16.2046 27.5238 17.6259C28.9932 19.0472 29.819 20.9772 29.819 22.9899L29.806 23.4486C29.6346 26.3376 27.7782 28.8991 24.9986 30.022C22.0727 31.2041 18.7006 30.5592 16.4563 28.3884C14.2121 26.2176 13.5382 22.9488 14.7492 20.1079C15.9602 17.267 18.8173 15.4141 21.987 15.4141ZM21.987 18.9697C19.6862 18.9697 17.821 20.7786 17.821 23.0101C17.821 25.2416 19.6862 27.0505 21.987 27.0505C24.2878 27.0505 26.1529 25.2416 26.1529 23.0101L26.1391 22.6787C25.9653 20.6023 24.1727 18.9697 21.987 18.9697ZM23.4242 0C26.8754 0 29.6732 2.71343 29.6732 6.06061C29.6675 6.48664 29.7828 6.90597 30.0064 7.27273C30.3382 7.84053 30.8903 8.25608 31.5398 8.42683C32.1892 8.59759 32.8821 8.50937 33.4642 8.18182C36.3965 6.63361 40.0657 7.59444 41.7961 10.3636C42.2743 11.2087 41.9803 12.2692 41.1295 12.7677C40.265 13.2463 39.1646 12.9683 38.6508 12.1414L38.4871 11.9034C37.7261 10.9241 36.3155 10.6268 35.193 11.2525C33.2802 12.2684 30.9597 12.2436 29.0705 11.1871C27.1812 10.1306 25.9965 8.19529 25.9446 6.08081C25.9672 5.41862 25.7117 4.7759 25.2365 4.29985C24.7614 3.8238 24.1074 3.55519 23.4242 3.55556H20.5706C19.8856 3.55535 19.2296 3.82332 18.7512 4.29873C18.2728 4.77413 18.0125 5.41671 18.0293 6.08081C18.01 8.20681 16.8244 10.1618 14.9179 11.2113C13.0114 12.2607 10.6729 12.2457 8.78092 11.1717L8.69761 11.0909L8.49719 10.9512C7.80828 10.3986 7.62929 9.4235 8.11437 8.66667C8.64355 7.84103 9.76265 7.58778 10.6139 8.10101C10.9939 8.31606 11.4239 8.43421 11.8637 8.44444C12.5379 8.47179 13.1955 8.238 13.6917 7.79462C14.188 7.35124 14.482 6.73466 14.5091 6.08081C14.4963 2.79553 17.1847 0.0985356 20.5706 0H23.4242Z" fill="black"/>
</svg>
